<mxfile host="app.diagrams.net" modified="2023-07-13T10:30:02.094Z" agent="Mozilla/5.0 (X11; Linux x86_64) AppleWebKit/537.36 (KHTML, like Gecko) Chrome/111.0.0.0 Safari/537.36" etag="jx9HYo2vHfBDFXS6S_t2" version="21.6.2" type="google">
  <diagram name="Page-1" id="Jf5i2--pVm0ne_xtDVXY">
    <mxGraphModel grid="1" page="1" gridSize="10" guides="1" tooltips="1" connect="1" arrows="1" fold="1" pageScale="1" pageWidth="1200" pageHeight="1600" math="0" shadow="0">
      <root>
        <mxCell id="0" />
        <mxCell id="1" parent="0" />
        <mxCell id="oLZsuykdocwYRX7SF5Q5-1" value="" style="shape=umlLifeline;perimeter=lifelinePerimeter;whiteSpace=wrap;html=1;container=1;dropTarget=0;collapsible=0;recursiveResize=0;outlineConnect=0;portConstraint=eastwest;newEdgeStyle={&quot;edgeStyle&quot;:&quot;elbowEdgeStyle&quot;,&quot;elbow&quot;:&quot;vertical&quot;,&quot;curved&quot;:0,&quot;rounded&quot;:0};participant=umlActor;labelBackgroundColor=none;fillColor=#F5AB50;strokeColor=#909090;fontColor=#1A1A1A;" vertex="1" parent="1">
          <mxGeometry x="140" y="70" width="20" height="1290" as="geometry" />
        </mxCell>
        <mxCell id="oLZsuykdocwYRX7SF5Q5-6" value="" style="shape=umlLifeline;perimeter=lifelinePerimeter;whiteSpace=wrap;html=1;container=1;dropTarget=0;collapsible=0;recursiveResize=0;outlineConnect=0;portConstraint=eastwest;newEdgeStyle={&quot;edgeStyle&quot;:&quot;elbowEdgeStyle&quot;,&quot;elbow&quot;:&quot;vertical&quot;,&quot;curved&quot;:0,&quot;rounded&quot;:0};participant=umlEntity;labelBackgroundColor=none;fillColor=#F5AB50;strokeColor=#909090;fontColor=#1A1A1A;" vertex="1" parent="1">
          <mxGeometry x="230" y="70" width="40" height="1290" as="geometry" />
        </mxCell>
        <mxCell id="mU06kPTWpjKVFBE_8kY2-1" value="" style="html=1;points=[];perimeter=orthogonalPerimeter;outlineConnect=0;targetShapes=umlLifeline;portConstraint=eastwest;newEdgeStyle={&quot;edgeStyle&quot;:&quot;elbowEdgeStyle&quot;,&quot;elbow&quot;:&quot;vertical&quot;,&quot;curved&quot;:0,&quot;rounded&quot;:0};labelBackgroundColor=none;fillColor=#F5AB50;strokeColor=#909090;fontColor=#1A1A1A;" vertex="1" parent="oLZsuykdocwYRX7SF5Q5-6">
          <mxGeometry x="15" y="60" width="10" height="1110" as="geometry" />
        </mxCell>
        <mxCell id="oLZsuykdocwYRX7SF5Q5-7" value="RPC sender" style="text;html=1;align=center;verticalAlign=middle;resizable=0;points=[];autosize=1;strokeColor=none;fillColor=none;labelBackgroundColor=none;fontColor=#1A1A1A;" vertex="1" parent="1">
          <mxGeometry x="105" y="40" width="90" height="30" as="geometry" />
        </mxCell>
        <mxCell id="oLZsuykdocwYRX7SF5Q5-8" value="RPC Worker&lt;br&gt;&lt;font style=&quot;font-size: 8px;&quot;&gt;smpc.worker&lt;/font&gt;" style="text;html=1;align=center;verticalAlign=middle;resizable=0;points=[];autosize=1;strokeColor=none;fillColor=none;labelBackgroundColor=none;fontColor=#1A1A1A;" vertex="1" parent="1">
          <mxGeometry x="205" y="35" width="90" height="40" as="geometry" />
        </mxCell>
        <mxCell id="oLZsuykdocwYRX7SF5Q5-9" value="&lt;span style=&quot;font-size: 10px;&quot;&gt;request&lt;/span&gt;" style="html=1;verticalAlign=bottom;endArrow=block;edgeStyle=elbowEdgeStyle;elbow=vertical;curved=0;rounded=0;labelBackgroundColor=none;fontColor=default;strokeColor=#182E3E;" edge="1" parent="1" target="mU06kPTWpjKVFBE_8kY2-1">
          <mxGeometry x="0.0526" y="10" width="80" relative="1" as="geometry">
            <mxPoint x="150" y="130" as="sourcePoint" />
            <mxPoint x="230" y="130" as="targetPoint" />
            <mxPoint as="offset" />
          </mxGeometry>
        </mxCell>
        <mxCell id="oLZsuykdocwYRX7SF5Q5-10" value="&lt;font style=&quot;font-size: 10px;&quot;&gt;req.rpcdata.Run&lt;/font&gt;" style="html=1;verticalAlign=bottom;endArrow=block;edgeStyle=elbowEdgeStyle;elbow=vertical;curved=0;rounded=0;labelBackgroundColor=none;fontColor=default;strokeColor=#182E3E;" edge="1" parent="1" source="mU06kPTWpjKVFBE_8kY2-1" target="oLZsuykdocwYRX7SF5Q5-93">
          <mxGeometry x="-0.1061" width="80" relative="1" as="geometry">
            <mxPoint x="250" y="140" as="sourcePoint" />
            <mxPoint x="330" y="140" as="targetPoint" />
            <mxPoint as="offset" />
            <Array as="points">
              <mxPoint x="270" y="140" />
            </Array>
          </mxGeometry>
        </mxCell>
        <mxCell id="oLZsuykdocwYRX7SF5Q5-11" value="" style="shape=umlLifeline;perimeter=lifelinePerimeter;whiteSpace=wrap;html=1;container=1;dropTarget=0;collapsible=0;recursiveResize=0;outlineConnect=0;portConstraint=eastwest;newEdgeStyle={&quot;edgeStyle&quot;:&quot;elbowEdgeStyle&quot;,&quot;elbow&quot;:&quot;vertical&quot;,&quot;curved&quot;:0,&quot;rounded&quot;:0};participant=umlEntity;labelBackgroundColor=none;fillColor=#F5AB50;strokeColor=#909090;fontColor=#1A1A1A;" vertex="1" parent="1">
          <mxGeometry x="320" y="70" width="40" height="1290" as="geometry" />
        </mxCell>
        <mxCell id="oLZsuykdocwYRX7SF5Q5-93" value="" style="html=1;points=[];perimeter=orthogonalPerimeter;outlineConnect=0;targetShapes=umlLifeline;portConstraint=eastwest;newEdgeStyle={&quot;edgeStyle&quot;:&quot;elbowEdgeStyle&quot;,&quot;elbow&quot;:&quot;vertical&quot;,&quot;curved&quot;:0,&quot;rounded&quot;:0};labelBackgroundColor=none;fillColor=#F5AB50;strokeColor=#909090;fontColor=#1A1A1A;" vertex="1" parent="oLZsuykdocwYRX7SF5Q5-11">
          <mxGeometry x="15" y="60" width="10" height="1100" as="geometry" />
        </mxCell>
        <mxCell id="oLZsuykdocwYRX7SF5Q5-55" value="" style="edgeStyle=none;orthogonalLoop=1;jettySize=auto;html=1;rounded=0;labelBackgroundColor=none;fontColor=default;strokeColor=#182E3E;" edge="1" parent="oLZsuykdocwYRX7SF5Q5-11" source="oLZsuykdocwYRX7SF5Q5-93" target="oLZsuykdocwYRX7SF5Q5-93">
          <mxGeometry width="80" relative="1" as="geometry">
            <mxPoint x="30" y="80" as="sourcePoint" />
            <mxPoint x="20" y="100" as="targetPoint" />
            <Array as="points">
              <mxPoint x="70" y="80" />
              <mxPoint x="70" y="100" />
            </Array>
          </mxGeometry>
        </mxCell>
        <mxCell id="oLZsuykdocwYRX7SF5Q5-56" value="&lt;font style=&quot;font-size: 10px;&quot;&gt;DecryptMsg&lt;/font&gt;" style="edgeLabel;html=1;align=center;verticalAlign=middle;resizable=0;points=[];labelBackgroundColor=none;fontColor=#1A1A1A;" vertex="1" connectable="0" parent="oLZsuykdocwYRX7SF5Q5-55">
          <mxGeometry x="-0.6935" y="-1" relative="1" as="geometry">
            <mxPoint x="11" y="-11" as="offset" />
          </mxGeometry>
        </mxCell>
        <mxCell id="oLZsuykdocwYRX7SF5Q5-95" value="" style="html=1;points=[];perimeter=orthogonalPerimeter;outlineConnect=0;targetShapes=umlLifeline;portConstraint=eastwest;newEdgeStyle={&quot;edgeStyle&quot;:&quot;elbowEdgeStyle&quot;,&quot;elbow&quot;:&quot;vertical&quot;,&quot;curved&quot;:0,&quot;rounded&quot;:0};labelBackgroundColor=none;fillColor=#F5AB50;strokeColor=#909090;fontColor=#1A1A1A;" vertex="1" parent="oLZsuykdocwYRX7SF5Q5-11">
          <mxGeometry x="30" y="280" width="10" height="40" as="geometry" />
        </mxCell>
        <mxCell id="oLZsuykdocwYRX7SF5Q5-12" value="&lt;font style=&quot;&quot;&gt;&lt;font style=&quot;font-size: 12px;&quot;&gt;Msg Processing&lt;/font&gt;&lt;br&gt;&lt;span style=&quot;font-size: 8px;&quot;&gt;smpc.msg&lt;/span&gt;&lt;/font&gt;" style="text;html=1;align=center;verticalAlign=middle;resizable=0;points=[];autosize=1;strokeColor=none;fillColor=none;labelBackgroundColor=none;fontColor=#1A1A1A;" vertex="1" parent="1">
          <mxGeometry x="285" y="35" width="110" height="40" as="geometry" />
        </mxCell>
        <mxCell id="oLZsuykdocwYRX7SF5Q5-61" value="MsgRun" style="shape=umlFrame;whiteSpace=wrap;html=1;pointerEvents=0;labelBackgroundColor=none;fillColor=#F5AB50;strokeColor=#909090;fontColor=#1A1A1A;" vertex="1" parent="1">
          <mxGeometry x="340" y="180" width="140" height="80" as="geometry" />
        </mxCell>
        <mxCell id="oLZsuykdocwYRX7SF5Q5-62" value="&lt;font style=&quot;font-size: 10px;&quot;&gt;[ msgType == &quot;REQADDR&quot; ]&lt;/font&gt;" style="text;html=1;align=left;verticalAlign=middle;resizable=0;points=[];autosize=1;strokeColor=none;fillColor=none;rotation=0;labelBackgroundColor=none;fontColor=#1A1A1A;" vertex="1" parent="1">
          <mxGeometry x="345" y="210" width="150" height="30" as="geometry" />
        </mxCell>
        <mxCell id="oLZsuykdocwYRX7SF5Q5-75" value="" style="shape=umlLifeline;perimeter=lifelinePerimeter;whiteSpace=wrap;html=1;container=1;dropTarget=0;collapsible=0;recursiveResize=0;outlineConnect=0;portConstraint=eastwest;newEdgeStyle={&quot;edgeStyle&quot;:&quot;elbowEdgeStyle&quot;,&quot;elbow&quot;:&quot;vertical&quot;,&quot;curved&quot;:0,&quot;rounded&quot;:0};participant=umlEntity;labelBackgroundColor=none;fillColor=#F5AB50;strokeColor=#909090;fontColor=#1A1A1A;" vertex="1" parent="1">
          <mxGeometry x="520" y="70" width="40" height="1290" as="geometry" />
        </mxCell>
        <mxCell id="oLZsuykdocwYRX7SF5Q5-94" value="" style="html=1;points=[];perimeter=orthogonalPerimeter;outlineConnect=0;targetShapes=umlLifeline;portConstraint=eastwest;newEdgeStyle={&quot;edgeStyle&quot;:&quot;elbowEdgeStyle&quot;,&quot;elbow&quot;:&quot;vertical&quot;,&quot;curved&quot;:0,&quot;rounded&quot;:0};labelBackgroundColor=none;fillColor=#F5AB50;strokeColor=#909090;fontColor=#1A1A1A;" vertex="1" parent="oLZsuykdocwYRX7SF5Q5-75">
          <mxGeometry x="15" y="150" width="10" height="990" as="geometry" />
        </mxCell>
        <mxCell id="oLZsuykdocwYRX7SF5Q5-83" value="" style="edgeStyle=none;orthogonalLoop=1;jettySize=auto;html=1;rounded=0;labelBackgroundColor=none;fontColor=default;strokeColor=#182E3E;" edge="1" parent="oLZsuykdocwYRX7SF5Q5-75" source="oLZsuykdocwYRX7SF5Q5-94" target="oLZsuykdocwYRX7SF5Q5-94">
          <mxGeometry width="80" relative="1" as="geometry">
            <mxPoint x="30" y="210" as="sourcePoint" />
            <mxPoint x="30" y="230" as="targetPoint" />
            <Array as="points">
              <mxPoint x="70" y="210" />
              <mxPoint x="70" y="230" />
            </Array>
          </mxGeometry>
        </mxCell>
        <mxCell id="oLZsuykdocwYRX7SF5Q5-84" value="&lt;font style=&quot;font-size: 10px;&quot;&gt;SendMsgToSmpcGroup&lt;/font&gt;" style="edgeLabel;html=1;align=center;verticalAlign=middle;resizable=0;points=[];labelBackgroundColor=none;fontColor=#1A1A1A;" vertex="1" connectable="0" parent="oLZsuykdocwYRX7SF5Q5-83">
          <mxGeometry x="-0.6935" y="-1" relative="1" as="geometry">
            <mxPoint x="41" y="-11" as="offset" />
          </mxGeometry>
        </mxCell>
        <mxCell id="oLZsuykdocwYRX7SF5Q5-81" value="" style="edgeStyle=none;orthogonalLoop=1;jettySize=auto;html=1;rounded=0;labelBackgroundColor=none;fontColor=default;strokeColor=#182E3E;" edge="1" parent="oLZsuykdocwYRX7SF5Q5-75" source="oLZsuykdocwYRX7SF5Q5-94" target="oLZsuykdocwYRX7SF5Q5-94">
          <mxGeometry width="80" relative="1" as="geometry">
            <mxPoint x="30" y="165" as="sourcePoint" />
            <mxPoint x="50" y="185" as="targetPoint" />
            <Array as="points">
              <mxPoint x="70" y="165" />
              <mxPoint x="70" y="185" />
            </Array>
          </mxGeometry>
        </mxCell>
        <mxCell id="oLZsuykdocwYRX7SF5Q5-82" value="&lt;font style=&quot;font-size: 10px;&quot;&gt;CheckRaw&lt;/font&gt;" style="edgeLabel;html=1;align=center;verticalAlign=middle;resizable=0;points=[];labelBackgroundColor=none;fontColor=#1A1A1A;" vertex="1" connectable="0" parent="oLZsuykdocwYRX7SF5Q5-81">
          <mxGeometry x="-0.6935" y="-1" relative="1" as="geometry">
            <mxPoint x="12" y="-11" as="offset" />
          </mxGeometry>
        </mxCell>
        <mxCell id="oLZsuykdocwYRX7SF5Q5-98" value="" style="edgeStyle=none;orthogonalLoop=1;jettySize=auto;html=1;rounded=0;labelBackgroundColor=none;fontColor=default;strokeColor=#182E3E;" edge="1" parent="oLZsuykdocwYRX7SF5Q5-75" source="oLZsuykdocwYRX7SF5Q5-94" target="oLZsuykdocwYRX7SF5Q5-94">
          <mxGeometry width="80" relative="1" as="geometry">
            <mxPoint x="30" y="310" as="sourcePoint" />
            <mxPoint x="30" y="330" as="targetPoint" />
            <Array as="points">
              <mxPoint x="75" y="310" />
              <mxPoint x="75" y="330" />
            </Array>
          </mxGeometry>
        </mxCell>
        <mxCell id="oLZsuykdocwYRX7SF5Q5-99" value="&lt;font style=&quot;&quot;&gt;&lt;span style=&quot;font-size: 10px;&quot;&gt;SaveAcceptReqAddrData&lt;/span&gt;&lt;br&gt;&lt;font style=&quot;font-size: 8px;&quot;&gt;save data to local db&lt;/font&gt;&lt;br&gt;&lt;/font&gt;" style="edgeLabel;html=1;align=center;verticalAlign=middle;resizable=0;points=[];labelBackgroundColor=none;fontColor=#1A1A1A;" vertex="1" connectable="0" parent="oLZsuykdocwYRX7SF5Q5-98">
          <mxGeometry x="-0.6935" y="-1" relative="1" as="geometry">
            <mxPoint x="46" y="-21" as="offset" />
          </mxGeometry>
        </mxCell>
        <mxCell id="oLZsuykdocwYRX7SF5Q5-76" value="Keygen start point&lt;br&gt;&lt;font style=&quot;font-size: 8px;&quot;&gt;smpc.api_reqaddr.ReqSmpcAddr&lt;/font&gt;" style="text;html=1;align=center;verticalAlign=middle;resizable=0;points=[];autosize=1;strokeColor=none;fillColor=none;labelBackgroundColor=none;fontColor=#1A1A1A;" vertex="1" parent="1">
          <mxGeometry x="470" y="30" width="140" height="40" as="geometry" />
        </mxCell>
        <mxCell id="oLZsuykdocwYRX7SF5Q5-78" value="" style="edgeStyle=none;orthogonalLoop=1;jettySize=auto;html=1;rounded=0;labelBackgroundColor=none;fontColor=default;strokeColor=#182E3E;" edge="1" parent="1" target="oLZsuykdocwYRX7SF5Q5-94">
          <mxGeometry width="80" relative="1" as="geometry">
            <mxPoint x="480" y="225" as="sourcePoint" />
            <mxPoint x="550" y="224.66" as="targetPoint" />
            <Array as="points" />
          </mxGeometry>
        </mxCell>
        <mxCell id="oLZsuykdocwYRX7SF5Q5-79" value="&lt;font style=&quot;font-size: 10px;&quot;&gt;DoReq&lt;/font&gt;" style="edgeLabel;html=1;align=center;verticalAlign=middle;resizable=0;points=[];labelBackgroundColor=none;fontColor=#1A1A1A;" vertex="1" connectable="0" parent="oLZsuykdocwYRX7SF5Q5-78">
          <mxGeometry x="0.0212" y="1" relative="1" as="geometry">
            <mxPoint x="-9" y="-7" as="offset" />
          </mxGeometry>
        </mxCell>
        <mxCell id="oLZsuykdocwYRX7SF5Q5-85" value="" style="edgeStyle=none;orthogonalLoop=1;jettySize=auto;html=1;rounded=0;labelBackgroundColor=none;fontColor=default;strokeColor=#182E3E;" edge="1" parent="1" source="oLZsuykdocwYRX7SF5Q5-94" target="oLZsuykdocwYRX7SF5Q5-96">
          <mxGeometry width="80" relative="1" as="geometry">
            <mxPoint x="560" y="320" as="sourcePoint" />
            <mxPoint x="650" y="320" as="targetPoint" />
            <Array as="points">
              <mxPoint x="590" y="320" />
              <mxPoint x="640" y="320" />
            </Array>
          </mxGeometry>
        </mxCell>
        <mxCell id="oLZsuykdocwYRX7SF5Q5-86" value="&lt;span style=&quot;font-size: 10px;&quot;&gt;GetAllReplyFromGroup&lt;/span&gt;" style="edgeLabel;html=1;align=center;verticalAlign=middle;resizable=0;points=[];labelBackgroundColor=none;fontColor=#1A1A1A;" vertex="1" connectable="0" parent="oLZsuykdocwYRX7SF5Q5-85">
          <mxGeometry x="-0.6935" y="-1" relative="1" as="geometry">
            <mxPoint x="47" y="-11" as="offset" />
          </mxGeometry>
        </mxCell>
        <mxCell id="oLZsuykdocwYRX7SF5Q5-87" value="" style="shape=umlLifeline;perimeter=lifelinePerimeter;whiteSpace=wrap;html=1;container=1;dropTarget=0;collapsible=0;recursiveResize=0;outlineConnect=0;portConstraint=eastwest;newEdgeStyle={&quot;edgeStyle&quot;:&quot;elbowEdgeStyle&quot;,&quot;elbow&quot;:&quot;vertical&quot;,&quot;curved&quot;:0,&quot;rounded&quot;:0};participant=umlEntity;labelBackgroundColor=none;fillColor=#F5AB50;strokeColor=#909090;fontColor=#1A1A1A;" vertex="1" parent="1">
          <mxGeometry x="650" y="70" width="40" height="1290" as="geometry" />
        </mxCell>
        <mxCell id="oLZsuykdocwYRX7SF5Q5-96" value="" style="html=1;points=[];perimeter=orthogonalPerimeter;outlineConnect=0;targetShapes=umlLifeline;portConstraint=eastwest;newEdgeStyle={&quot;edgeStyle&quot;:&quot;elbowEdgeStyle&quot;,&quot;elbow&quot;:&quot;vertical&quot;,&quot;curved&quot;:0,&quot;rounded&quot;:0};labelBackgroundColor=none;fillColor=#F5AB50;strokeColor=#909090;fontColor=#1A1A1A;" vertex="1" parent="oLZsuykdocwYRX7SF5Q5-87">
          <mxGeometry x="15" y="240" width="10" height="40" as="geometry" />
        </mxCell>
        <mxCell id="oLZsuykdocwYRX7SF5Q5-88" value="&lt;font style=&quot;&quot;&gt;Reply Processor&lt;br&gt;&lt;/font&gt;&lt;font style=&quot;font-size: 8px;&quot;&gt;smpc.accept&lt;/font&gt;" style="text;html=1;align=center;verticalAlign=middle;resizable=0;points=[];autosize=1;strokeColor=none;fillColor=none;labelBackgroundColor=none;fontColor=#1A1A1A;" vertex="1" parent="1">
          <mxGeometry x="615" y="30" width="110" height="40" as="geometry" />
        </mxCell>
        <mxCell id="oLZsuykdocwYRX7SF5Q5-89" value="" style="edgeStyle=none;orthogonalLoop=1;jettySize=auto;html=1;rounded=0;startArrow=classic;startFill=1;endArrow=none;endFill=0;labelBackgroundColor=none;fontColor=default;strokeColor=#182E3E;" edge="1" parent="1" source="oLZsuykdocwYRX7SF5Q5-94" target="oLZsuykdocwYRX7SF5Q5-96">
          <mxGeometry width="80" relative="1" as="geometry">
            <mxPoint x="560" y="340" as="sourcePoint" />
            <mxPoint x="660" y="340" as="targetPoint" />
            <Array as="points">
              <mxPoint x="590" y="340" />
              <mxPoint x="640" y="340" />
            </Array>
          </mxGeometry>
        </mxCell>
        <mxCell id="oLZsuykdocwYRX7SF5Q5-90" value="&lt;font style=&quot;font-size: 10px;&quot;&gt;GetReplyFromGroup&lt;/font&gt;" style="edgeLabel;html=1;align=center;verticalAlign=middle;resizable=0;points=[];labelBackgroundColor=none;fontColor=#1A1A1A;" vertex="1" connectable="0" parent="oLZsuykdocwYRX7SF5Q5-89">
          <mxGeometry x="-0.6935" y="-1" relative="1" as="geometry">
            <mxPoint x="47" y="-11" as="offset" />
          </mxGeometry>
        </mxCell>
        <mxCell id="oLZsuykdocwYRX7SF5Q5-91" value="" style="edgeStyle=none;orthogonalLoop=1;jettySize=auto;html=1;rounded=0;startArrow=classic;startFill=1;endArrow=none;endFill=0;labelBackgroundColor=none;fontColor=default;strokeColor=#182E3E;" edge="1" parent="1" source="oLZsuykdocwYRX7SF5Q5-95" target="oLZsuykdocwYRX7SF5Q5-94">
          <mxGeometry width="80" relative="1" as="geometry">
            <mxPoint x="350" y="360" as="sourcePoint" />
            <mxPoint x="530" y="360" as="targetPoint" />
            <Array as="points">
              <mxPoint x="440" y="360" />
              <mxPoint x="490" y="360" />
            </Array>
          </mxGeometry>
        </mxCell>
        <mxCell id="oLZsuykdocwYRX7SF5Q5-92" value="&lt;font style=&quot;&quot;&gt;GetGroupSigsDataByRaw&lt;br&gt;&lt;font style=&quot;font-size: 8px;&quot;&gt;get account sigs data from special tx data(raw data)&lt;/font&gt;&lt;br&gt;&lt;/font&gt;" style="edgeLabel;html=1;align=center;verticalAlign=middle;resizable=0;points=[];labelBackgroundColor=none;fontColor=#1A1A1A;" vertex="1" connectable="0" parent="oLZsuykdocwYRX7SF5Q5-91">
          <mxGeometry x="-0.6935" y="-1" relative="1" as="geometry">
            <mxPoint x="53" y="-31" as="offset" />
          </mxGeometry>
        </mxCell>
        <mxCell id="oLZsuykdocwYRX7SF5Q5-97" style="edgeStyle=elbowEdgeStyle;rounded=0;orthogonalLoop=1;jettySize=auto;html=1;elbow=vertical;curved=0;labelBackgroundColor=none;fontColor=default;strokeColor=#182E3E;" edge="1" parent="1">
          <mxGeometry relative="1" as="geometry">
            <mxPoint x="360" y="380" as="sourcePoint" />
            <mxPoint x="535" y="379.9989655172414" as="targetPoint" />
          </mxGeometry>
        </mxCell>
        <mxCell id="oLZsuykdocwYRX7SF5Q5-101" value="" style="shape=umlLifeline;perimeter=lifelinePerimeter;whiteSpace=wrap;html=1;container=1;dropTarget=0;collapsible=0;recursiveResize=0;outlineConnect=0;portConstraint=eastwest;newEdgeStyle={&quot;edgeStyle&quot;:&quot;elbowEdgeStyle&quot;,&quot;elbow&quot;:&quot;vertical&quot;,&quot;curved&quot;:0,&quot;rounded&quot;:0};participant=umlEntity;labelBackgroundColor=none;fillColor=#F5AB50;strokeColor=#909090;fontColor=#1A1A1A;" vertex="1" parent="1">
          <mxGeometry x="740" y="70" width="40" height="1290" as="geometry" />
        </mxCell>
        <mxCell id="oLZsuykdocwYRX7SF5Q5-110" value="" style="html=1;points=[];perimeter=orthogonalPerimeter;outlineConnect=0;targetShapes=umlLifeline;portConstraint=eastwest;newEdgeStyle={&quot;edgeStyle&quot;:&quot;elbowEdgeStyle&quot;,&quot;elbow&quot;:&quot;vertical&quot;,&quot;curved&quot;:0,&quot;rounded&quot;:0};labelBackgroundColor=none;fillColor=#F5AB50;strokeColor=#909090;fontColor=#1A1A1A;" vertex="1" parent="oLZsuykdocwYRX7SF5Q5-101">
          <mxGeometry x="15" y="340" width="10" height="790" as="geometry" />
        </mxCell>
        <mxCell id="oLZsuykdocwYRX7SF5Q5-114" value="" style="html=1;points=[];perimeter=orthogonalPerimeter;outlineConnect=0;targetShapes=umlLifeline;portConstraint=eastwest;newEdgeStyle={&quot;edgeStyle&quot;:&quot;elbowEdgeStyle&quot;,&quot;elbow&quot;:&quot;vertical&quot;,&quot;curved&quot;:0,&quot;rounded&quot;:0};labelBackgroundColor=none;fillColor=#F5AB50;strokeColor=#909090;fontColor=#1A1A1A;" vertex="1" parent="oLZsuykdocwYRX7SF5Q5-101">
          <mxGeometry x="30" y="360" width="10" height="670" as="geometry" />
        </mxCell>
        <mxCell id="oLZsuykdocwYRX7SF5Q5-115" value="" style="edgeStyle=none;orthogonalLoop=1;jettySize=auto;html=1;rounded=0;labelBackgroundColor=none;fontColor=default;strokeColor=#182E3E;" edge="1" parent="oLZsuykdocwYRX7SF5Q5-101" source="oLZsuykdocwYRX7SF5Q5-110" target="oLZsuykdocwYRX7SF5Q5-114">
          <mxGeometry width="80" relative="1" as="geometry">
            <mxPoint x="70" y="290" as="sourcePoint" />
            <mxPoint x="280" y="290" as="targetPoint" />
            <Array as="points">
              <mxPoint x="60" y="350" />
              <mxPoint x="60" y="375" />
            </Array>
          </mxGeometry>
        </mxCell>
        <mxCell id="oLZsuykdocwYRX7SF5Q5-116" value="KeyGenerateDECDSA" style="edgeLabel;html=1;align=center;verticalAlign=middle;resizable=0;points=[];labelBackgroundColor=none;fontColor=#1A1A1A;" vertex="1" connectable="0" parent="oLZsuykdocwYRX7SF5Q5-115">
          <mxGeometry x="-0.6935" y="-1" relative="1" as="geometry">
            <mxPoint x="53" y="-11" as="offset" />
          </mxGeometry>
        </mxCell>
        <mxCell id="oLZsuykdocwYRX7SF5Q5-219" value="" style="edgeStyle=none;orthogonalLoop=1;jettySize=auto;html=1;rounded=0;dashed=1;labelBackgroundColor=none;fontColor=default;strokeColor=#182E3E;" edge="1" parent="oLZsuykdocwYRX7SF5Q5-101" source="oLZsuykdocwYRX7SF5Q5-114" target="oLZsuykdocwYRX7SF5Q5-110">
          <mxGeometry width="80" relative="1" as="geometry">
            <mxPoint x="55" y="1030.0000000000002" as="sourcePoint" />
            <mxPoint x="210" y="1060" as="targetPoint" />
            <Array as="points">
              <mxPoint x="130" y="1020" />
              <mxPoint x="130" y="1060" />
            </Array>
          </mxGeometry>
        </mxCell>
        <mxCell id="oLZsuykdocwYRX7SF5Q5-220" value="return" style="edgeLabel;html=1;align=center;verticalAlign=middle;resizable=0;points=[];labelBackgroundColor=none;fontColor=#1A1A1A;" vertex="1" connectable="0" parent="oLZsuykdocwYRX7SF5Q5-219">
          <mxGeometry x="-0.5929" y="2" relative="1" as="geometry">
            <mxPoint x="3" y="-8" as="offset" />
          </mxGeometry>
        </mxCell>
        <mxCell id="oLZsuykdocwYRX7SF5Q5-103" value="&lt;font style=&quot;&quot;&gt;&lt;font style=&quot;font-size: 12px;&quot;&gt;Req Process&lt;/font&gt;&lt;br&gt;&lt;span style=&quot;font-size: 8px;&quot;&gt;smpc.reqaddr&lt;/span&gt;&lt;/font&gt;" style="text;html=1;align=center;verticalAlign=middle;resizable=0;points=[];autosize=1;strokeColor=none;fillColor=none;labelBackgroundColor=none;fontColor=#1A1A1A;" vertex="1" parent="1">
          <mxGeometry x="720" y="30" width="90" height="40" as="geometry" />
        </mxCell>
        <mxCell id="oLZsuykdocwYRX7SF5Q5-106" value="return" style="html=1;verticalAlign=bottom;endArrow=open;dashed=1;endSize=8;edgeStyle=elbowEdgeStyle;elbow=vertical;curved=0;rounded=0;labelBackgroundColor=none;fontColor=default;strokeColor=#182E3E;" edge="1" parent="1">
          <mxGeometry relative="1" as="geometry">
            <mxPoint x="535" y="1210.4285714285716" as="sourcePoint" />
            <mxPoint x="345" y="1210" as="targetPoint" />
          </mxGeometry>
        </mxCell>
        <mxCell id="oLZsuykdocwYRX7SF5Q5-107" value="return" style="html=1;verticalAlign=bottom;endArrow=open;dashed=1;endSize=8;edgeStyle=elbowEdgeStyle;elbow=vertical;curved=0;rounded=0;labelBackgroundColor=none;fontColor=default;strokeColor=#182E3E;" edge="1" parent="1" target="mU06kPTWpjKVFBE_8kY2-1">
          <mxGeometry relative="1" as="geometry">
            <mxPoint x="335" y="1219.996666666667" as="sourcePoint" />
            <mxPoint x="250" y="1220.33" as="targetPoint" />
          </mxGeometry>
        </mxCell>
        <mxCell id="oLZsuykdocwYRX7SF5Q5-108" value="" style="edgeStyle=none;orthogonalLoop=1;jettySize=auto;html=1;rounded=0;labelBackgroundColor=none;fontColor=default;strokeColor=#182E3E;" edge="1" parent="1" source="oLZsuykdocwYRX7SF5Q5-94" target="oLZsuykdocwYRX7SF5Q5-110">
          <mxGeometry width="80" relative="1" as="geometry">
            <mxPoint x="555" y="420" as="sourcePoint" />
            <mxPoint x="730" y="420" as="targetPoint" />
            <Array as="points">
              <mxPoint x="600" y="430" />
              <mxPoint x="650" y="430" />
            </Array>
          </mxGeometry>
        </mxCell>
        <mxCell id="oLZsuykdocwYRX7SF5Q5-109" value="smpcGenPubKey" style="edgeLabel;html=1;align=center;verticalAlign=middle;resizable=0;points=[];labelBackgroundColor=none;fontColor=#1A1A1A;" vertex="1" connectable="0" parent="oLZsuykdocwYRX7SF5Q5-108">
          <mxGeometry x="-0.6935" y="-1" relative="1" as="geometry">
            <mxPoint x="87" y="-11" as="offset" />
          </mxGeometry>
        </mxCell>
        <mxCell id="oLZsuykdocwYRX7SF5Q5-127" value="" style="shape=umlLifeline;perimeter=lifelinePerimeter;whiteSpace=wrap;html=1;container=1;dropTarget=0;collapsible=0;recursiveResize=0;outlineConnect=0;portConstraint=eastwest;newEdgeStyle={&quot;edgeStyle&quot;:&quot;elbowEdgeStyle&quot;,&quot;elbow&quot;:&quot;vertical&quot;,&quot;curved&quot;:0,&quot;rounded&quot;:0};participant=umlEntity;labelBackgroundColor=none;fillColor=#F5AB50;strokeColor=#909090;fontColor=#1A1A1A;" vertex="1" parent="1">
          <mxGeometry x="1025" y="70" width="40" height="1290" as="geometry" />
        </mxCell>
        <mxCell id="oLZsuykdocwYRX7SF5Q5-132" value="" style="html=1;points=[];perimeter=orthogonalPerimeter;outlineConnect=0;targetShapes=umlLifeline;portConstraint=eastwest;newEdgeStyle={&quot;edgeStyle&quot;:&quot;elbowEdgeStyle&quot;,&quot;elbow&quot;:&quot;vertical&quot;,&quot;curved&quot;:0,&quot;rounded&quot;:0};labelBackgroundColor=none;fillColor=#F5AB50;strokeColor=#909090;fontColor=#1A1A1A;" vertex="1" parent="oLZsuykdocwYRX7SF5Q5-127">
          <mxGeometry x="15" y="380" width="10" height="35" as="geometry" />
        </mxCell>
        <mxCell id="oLZsuykdocwYRX7SF5Q5-176" value="" style="html=1;points=[];perimeter=orthogonalPerimeter;outlineConnect=0;targetShapes=umlLifeline;portConstraint=eastwest;newEdgeStyle={&quot;edgeStyle&quot;:&quot;elbowEdgeStyle&quot;,&quot;elbow&quot;:&quot;vertical&quot;,&quot;curved&quot;:0,&quot;rounded&quot;:0};labelBackgroundColor=none;fillColor=#F5AB50;strokeColor=#909090;fontColor=#1A1A1A;" vertex="1" parent="oLZsuykdocwYRX7SF5Q5-127">
          <mxGeometry x="15" y="570" width="10" height="260" as="geometry" />
        </mxCell>
        <mxCell id="oLZsuykdocwYRX7SF5Q5-129" value="&lt;font style=&quot;&quot;&gt;&lt;font style=&quot;font-size: 12px;&quot;&gt;Keygen state machine&lt;/font&gt;&lt;br&gt;&lt;span style=&quot;font-size: 8px;&quot;&gt;smpc-lib.ecdsa.keygen.local-dnode&lt;/span&gt;&lt;/font&gt;" style="text;html=1;align=center;verticalAlign=middle;resizable=0;points=[];autosize=1;strokeColor=none;fillColor=none;labelBackgroundColor=none;fontColor=#1A1A1A;" vertex="1" parent="1">
          <mxGeometry x="970" y="25" width="150" height="40" as="geometry" />
        </mxCell>
        <mxCell id="oLZsuykdocwYRX7SF5Q5-130" value="" style="edgeStyle=none;orthogonalLoop=1;jettySize=auto;html=1;rounded=0;labelBackgroundColor=none;fontColor=default;strokeColor=#182E3E;" edge="1" parent="1" target="oLZsuykdocwYRX7SF5Q5-132">
          <mxGeometry width="80" relative="1" as="geometry">
            <mxPoint x="780" y="460" as="sourcePoint" />
            <mxPoint x="900" y="460" as="targetPoint" />
            <Array as="points">
              <mxPoint x="825" y="460" />
              <mxPoint x="875" y="460" />
            </Array>
          </mxGeometry>
        </mxCell>
        <mxCell id="oLZsuykdocwYRX7SF5Q5-131" value="NewLocalDNode" style="edgeLabel;html=1;align=center;verticalAlign=middle;resizable=0;points=[];labelBackgroundColor=none;fontColor=#1A1A1A;" vertex="1" connectable="0" parent="oLZsuykdocwYRX7SF5Q5-130">
          <mxGeometry x="-0.6935" y="-1" relative="1" as="geometry">
            <mxPoint x="30" y="-11" as="offset" />
          </mxGeometry>
        </mxCell>
        <mxCell id="oLZsuykdocwYRX7SF5Q5-134" value="return" style="html=1;verticalAlign=bottom;endArrow=open;dashed=1;endSize=8;edgeStyle=elbowEdgeStyle;elbow=vertical;curved=0;rounded=0;labelBackgroundColor=none;fontColor=default;strokeColor=#182E3E;" edge="1" parent="1">
          <mxGeometry x="-0.0007" y="10" relative="1" as="geometry">
            <mxPoint x="1039.9999999999998" y="470.18857142857155" as="sourcePoint" />
            <mxPoint x="780" y="470" as="targetPoint" />
            <mxPoint as="offset" />
          </mxGeometry>
        </mxCell>
        <mxCell id="oLZsuykdocwYRX7SF5Q5-135" value="" style="shape=umlLifeline;perimeter=lifelinePerimeter;whiteSpace=wrap;html=1;container=1;dropTarget=0;collapsible=0;recursiveResize=0;outlineConnect=0;portConstraint=eastwest;newEdgeStyle={&quot;edgeStyle&quot;:&quot;elbowEdgeStyle&quot;,&quot;elbow&quot;:&quot;vertical&quot;,&quot;curved&quot;:0,&quot;rounded&quot;:0};participant=umlEntity;labelBackgroundColor=none;fillColor=#F5AB50;strokeColor=#909090;fontColor=#1A1A1A;" vertex="1" parent="1">
          <mxGeometry x="840" y="70" width="40" height="1290" as="geometry" />
        </mxCell>
        <mxCell id="oLZsuykdocwYRX7SF5Q5-138" value="" style="html=1;points=[];perimeter=orthogonalPerimeter;outlineConnect=0;targetShapes=umlLifeline;portConstraint=eastwest;newEdgeStyle={&quot;edgeStyle&quot;:&quot;elbowEdgeStyle&quot;,&quot;elbow&quot;:&quot;vertical&quot;,&quot;curved&quot;:0,&quot;rounded&quot;:0};labelBackgroundColor=none;fillColor=#F5AB50;strokeColor=#909090;fontColor=#1A1A1A;" vertex="1" parent="oLZsuykdocwYRX7SF5Q5-135">
          <mxGeometry x="15" y="430" width="10" height="70" as="geometry" />
        </mxCell>
        <mxCell id="oLZsuykdocwYRX7SF5Q5-137" value="&lt;font style=&quot;&quot;&gt;&lt;font style=&quot;font-size: 12px;&quot;&gt;&amp;nbsp;thread for starting node&lt;/font&gt;&lt;br&gt;&lt;span style=&quot;font-size: 8px;&quot;&gt;smpc.reqaddr&lt;/span&gt;&lt;/font&gt;" style="text;html=1;align=center;verticalAlign=middle;resizable=0;points=[];autosize=1;strokeColor=none;fillColor=none;labelBackgroundColor=none;fontColor=#1A1A1A;" vertex="1" parent="1">
          <mxGeometry x="785" y="25" width="150" height="40" as="geometry" />
        </mxCell>
        <mxCell id="oLZsuykdocwYRX7SF5Q5-142" value="" style="edgeStyle=none;orthogonalLoop=1;jettySize=auto;html=1;rounded=0;labelBackgroundColor=none;fontColor=default;strokeColor=#182E3E;" edge="1" parent="1">
          <mxGeometry width="80" relative="1" as="geometry">
            <mxPoint x="780" y="500" as="sourcePoint" />
            <mxPoint x="854.9999999999998" y="500" as="targetPoint" />
          </mxGeometry>
        </mxCell>
        <mxCell id="oLZsuykdocwYRX7SF5Q5-143" value="create thread from lambda" style="edgeLabel;html=1;align=center;verticalAlign=middle;resizable=0;points=[];fontSize=10;labelBackgroundColor=none;fontColor=#1A1A1A;" vertex="1" connectable="0" parent="oLZsuykdocwYRX7SF5Q5-142">
          <mxGeometry x="-0.6935" relative="1" as="geometry">
            <mxPoint x="48" y="-11" as="offset" />
          </mxGeometry>
        </mxCell>
        <mxCell id="oLZsuykdocwYRX7SF5Q5-144" value="return" style="html=1;verticalAlign=bottom;endArrow=open;dashed=1;endSize=8;edgeStyle=elbowEdgeStyle;elbow=vertical;curved=0;rounded=0;labelBackgroundColor=none;fontColor=default;strokeColor=#182E3E;" edge="1" parent="1" source="oLZsuykdocwYRX7SF5Q5-138">
          <mxGeometry x="-0.0033" relative="1" as="geometry">
            <mxPoint x="840" y="529.6" as="sourcePoint" />
            <mxPoint x="780" y="529.6" as="targetPoint" />
            <Array as="points">
              <mxPoint x="830" y="530" />
            </Array>
            <mxPoint as="offset" />
          </mxGeometry>
        </mxCell>
        <mxCell id="oLZsuykdocwYRX7SF5Q5-145" value="" style="shape=umlLifeline;perimeter=lifelinePerimeter;whiteSpace=wrap;html=1;container=1;dropTarget=0;collapsible=0;recursiveResize=0;outlineConnect=0;portConstraint=eastwest;newEdgeStyle={&quot;edgeStyle&quot;:&quot;elbowEdgeStyle&quot;,&quot;elbow&quot;:&quot;vertical&quot;,&quot;curved&quot;:0,&quot;rounded&quot;:0};participant=umlEntity;labelBackgroundColor=none;fillColor=#F5AB50;strokeColor=#909090;fontColor=#1A1A1A;" vertex="1" parent="1">
          <mxGeometry x="1150" y="70" width="40" height="1290" as="geometry" />
        </mxCell>
        <mxCell id="oLZsuykdocwYRX7SF5Q5-148" value="" style="html=1;points=[];perimeter=orthogonalPerimeter;outlineConnect=0;targetShapes=umlLifeline;portConstraint=eastwest;newEdgeStyle={&quot;edgeStyle&quot;:&quot;elbowEdgeStyle&quot;,&quot;elbow&quot;:&quot;vertical&quot;,&quot;curved&quot;:0,&quot;rounded&quot;:0};labelBackgroundColor=none;fillColor=#F5AB50;strokeColor=#909090;fontColor=#1A1A1A;" vertex="1" parent="oLZsuykdocwYRX7SF5Q5-145">
          <mxGeometry x="15" y="460" width="10" height="40" as="geometry" />
        </mxCell>
        <mxCell id="oLZsuykdocwYRX7SF5Q5-151" value="" style="edgeStyle=none;orthogonalLoop=1;jettySize=auto;html=1;rounded=0;labelBackgroundColor=none;fontColor=default;strokeColor=#182E3E;" edge="1" parent="oLZsuykdocwYRX7SF5Q5-145" source="oLZsuykdocwYRX7SF5Q5-148" target="oLZsuykdocwYRX7SF5Q5-148">
          <mxGeometry width="80" relative="1" as="geometry">
            <mxPoint x="30" y="470" as="sourcePoint" />
            <mxPoint x="30" y="490" as="targetPoint" />
            <Array as="points">
              <mxPoint x="75" y="470" />
              <mxPoint x="75" y="490" />
            </Array>
          </mxGeometry>
        </mxCell>
        <mxCell id="oLZsuykdocwYRX7SF5Q5-152" value="&lt;font style=&quot;font-size: 10px;&quot;&gt;Creates 0 round &amp;amp; Send Out Msg&lt;/font&gt;" style="edgeLabel;html=1;align=center;verticalAlign=middle;resizable=0;points=[];labelBackgroundColor=none;fontColor=#1A1A1A;" vertex="1" connectable="0" parent="oLZsuykdocwYRX7SF5Q5-151">
          <mxGeometry x="-0.6935" y="-1" relative="1" as="geometry">
            <mxPoint x="57" y="-11" as="offset" />
          </mxGeometry>
        </mxCell>
        <mxCell id="oLZsuykdocwYRX7SF5Q5-181" value="" style="html=1;points=[];perimeter=orthogonalPerimeter;outlineConnect=0;targetShapes=umlLifeline;portConstraint=eastwest;newEdgeStyle={&quot;edgeStyle&quot;:&quot;elbowEdgeStyle&quot;,&quot;elbow&quot;:&quot;vertical&quot;,&quot;curved&quot;:0,&quot;rounded&quot;:0};labelBackgroundColor=none;fillColor=#F5AB50;strokeColor=#909090;fontColor=#1A1A1A;" vertex="1" parent="oLZsuykdocwYRX7SF5Q5-145">
          <mxGeometry x="15" y="630" width="10" height="40" as="geometry" />
        </mxCell>
        <mxCell id="oLZsuykdocwYRX7SF5Q5-188" value="" style="html=1;points=[];perimeter=orthogonalPerimeter;outlineConnect=0;targetShapes=umlLifeline;portConstraint=eastwest;newEdgeStyle={&quot;edgeStyle&quot;:&quot;elbowEdgeStyle&quot;,&quot;elbow&quot;:&quot;vertical&quot;,&quot;curved&quot;:0,&quot;rounded&quot;:0};labelBackgroundColor=none;fillColor=#F5AB50;strokeColor=#909090;fontColor=#1A1A1A;" vertex="1" parent="oLZsuykdocwYRX7SF5Q5-145">
          <mxGeometry x="15" y="690" width="10" height="40" as="geometry" />
        </mxCell>
        <mxCell id="oLZsuykdocwYRX7SF5Q5-191" value="" style="html=1;points=[];perimeter=orthogonalPerimeter;outlineConnect=0;targetShapes=umlLifeline;portConstraint=eastwest;newEdgeStyle={&quot;edgeStyle&quot;:&quot;elbowEdgeStyle&quot;,&quot;elbow&quot;:&quot;vertical&quot;,&quot;curved&quot;:0,&quot;rounded&quot;:0};labelBackgroundColor=none;fillColor=#F5AB50;strokeColor=#909090;fontColor=#1A1A1A;" vertex="1" parent="oLZsuykdocwYRX7SF5Q5-145">
          <mxGeometry x="15" y="760" width="10" height="40" as="geometry" />
        </mxCell>
        <mxCell id="oLZsuykdocwYRX7SF5Q5-147" value="&lt;font style=&quot;&quot;&gt;&lt;font style=&quot;font-size: 12px;&quot;&gt;Rounds&lt;/font&gt;&lt;br&gt;&lt;span style=&quot;font-size: 8px;&quot;&gt;smpc-lib.ecdsa.keygen.round_*&lt;/span&gt;&lt;/font&gt;" style="text;html=1;align=center;verticalAlign=middle;resizable=0;points=[];autosize=1;strokeColor=none;fillColor=none;labelBackgroundColor=none;fontColor=#1A1A1A;" vertex="1" parent="1">
          <mxGeometry x="1100" y="25" width="140" height="40" as="geometry" />
        </mxCell>
        <mxCell id="oLZsuykdocwYRX7SF5Q5-149" value="" style="edgeStyle=none;orthogonalLoop=1;jettySize=auto;html=1;rounded=0;labelBackgroundColor=none;fontColor=default;strokeColor=#182E3E;" edge="1" parent="1">
          <mxGeometry width="80" relative="1" as="geometry">
            <mxPoint x="865" y="540" as="sourcePoint" />
            <mxPoint x="1165" y="540" as="targetPoint" />
          </mxGeometry>
        </mxCell>
        <mxCell id="oLZsuykdocwYRX7SF5Q5-150" value="Round0.Start" style="edgeLabel;html=1;align=center;verticalAlign=middle;resizable=0;points=[];labelBackgroundColor=none;fontColor=#1A1A1A;" vertex="1" connectable="0" parent="oLZsuykdocwYRX7SF5Q5-149">
          <mxGeometry x="-0.6935" relative="1" as="geometry">
            <mxPoint x="-11" y="-10" as="offset" />
          </mxGeometry>
        </mxCell>
        <mxCell id="oLZsuykdocwYRX7SF5Q5-153" value="return" style="html=1;verticalAlign=bottom;endArrow=open;dashed=1;endSize=8;edgeStyle=elbowEdgeStyle;elbow=vertical;curved=0;rounded=0;labelBackgroundColor=none;fontColor=default;strokeColor=#182E3E;" edge="1" parent="1" target="oLZsuykdocwYRX7SF5Q5-138">
          <mxGeometry x="-0.0033" relative="1" as="geometry">
            <mxPoint x="1165" y="560.4" as="sourcePoint" />
            <mxPoint x="880" y="560" as="targetPoint" />
            <Array as="points" />
            <mxPoint as="offset" />
          </mxGeometry>
        </mxCell>
        <mxCell id="oLZsuykdocwYRX7SF5Q5-155" value="" style="edgeStyle=none;orthogonalLoop=1;jettySize=auto;html=1;rounded=0;labelBackgroundColor=none;fontColor=default;strokeColor=#182E3E;" edge="1" parent="1" target="oLZsuykdocwYRX7SF5Q5-159">
          <mxGeometry width="80" relative="1" as="geometry">
            <mxPoint x="780" y="590" as="sourcePoint" />
            <mxPoint x="1380" y="590" as="targetPoint" />
            <Array as="points">
              <mxPoint x="820" y="590" />
            </Array>
          </mxGeometry>
        </mxCell>
        <mxCell id="oLZsuykdocwYRX7SF5Q5-156" value="create thread from&amp;nbsp;ProcessInboundMessages&amp;nbsp; &lt;font style=&quot;font-size: 8px;&quot;&gt;(Analyze the obtained P2P messages and enter next round). See smpc.dnode.BaseUpdate&lt;/font&gt;" style="edgeLabel;html=1;align=center;verticalAlign=middle;resizable=0;points=[];fontSize=10;labelBackgroundColor=none;fontColor=#1A1A1A;" vertex="1" connectable="0" parent="oLZsuykdocwYRX7SF5Q5-155">
          <mxGeometry x="-0.6935" relative="1" as="geometry">
            <mxPoint x="173" y="-10" as="offset" />
          </mxGeometry>
        </mxCell>
        <mxCell id="oLZsuykdocwYRX7SF5Q5-158" value="" style="shape=umlLifeline;perimeter=lifelinePerimeter;whiteSpace=wrap;html=1;container=1;dropTarget=0;collapsible=0;recursiveResize=0;outlineConnect=0;portConstraint=eastwest;newEdgeStyle={&quot;edgeStyle&quot;:&quot;elbowEdgeStyle&quot;,&quot;elbow&quot;:&quot;vertical&quot;,&quot;curved&quot;:0,&quot;rounded&quot;:0};participant=umlEntity;labelBackgroundColor=none;fillColor=#F5AB50;strokeColor=#909090;fontColor=#1A1A1A;" vertex="1" parent="1">
          <mxGeometry x="1400" y="70" width="40" height="1290" as="geometry" />
        </mxCell>
        <mxCell id="oLZsuykdocwYRX7SF5Q5-159" value="" style="html=1;points=[];perimeter=orthogonalPerimeter;outlineConnect=0;targetShapes=umlLifeline;portConstraint=eastwest;newEdgeStyle={&quot;edgeStyle&quot;:&quot;elbowEdgeStyle&quot;,&quot;elbow&quot;:&quot;vertical&quot;,&quot;curved&quot;:0,&quot;rounded&quot;:0};labelBackgroundColor=none;fillColor=#F5AB50;strokeColor=#909090;fontColor=#1A1A1A;" vertex="1" parent="oLZsuykdocwYRX7SF5Q5-158">
          <mxGeometry x="15" y="510" width="10" height="360" as="geometry" />
        </mxCell>
        <mxCell id="oLZsuykdocwYRX7SF5Q5-203" value="" style="html=1;points=[];perimeter=orthogonalPerimeter;outlineConnect=0;targetShapes=umlLifeline;portConstraint=eastwest;newEdgeStyle={&quot;edgeStyle&quot;:&quot;elbowEdgeStyle&quot;,&quot;elbow&quot;:&quot;vertical&quot;,&quot;curved&quot;:0,&quot;rounded&quot;:0};labelBackgroundColor=none;fillColor=#F5AB50;strokeColor=#909090;fontColor=#1A1A1A;" vertex="1" parent="oLZsuykdocwYRX7SF5Q5-158">
          <mxGeometry x="15" y="890" width="10" height="120" as="geometry" />
        </mxCell>
        <mxCell id="oLZsuykdocwYRX7SF5Q5-165" value="&lt;font style=&quot;&quot;&gt;&lt;br&gt;&lt;span style=&quot;font-size: 8px;&quot;&gt;smpc.key_ec&lt;/span&gt;&lt;/font&gt;" style="text;html=1;align=center;verticalAlign=middle;resizable=0;points=[];autosize=1;strokeColor=none;fillColor=none;labelBackgroundColor=none;fontColor=#1A1A1A;" vertex="1" parent="1">
          <mxGeometry x="1385" y="25" width="70" height="40" as="geometry" />
        </mxCell>
        <mxCell id="oLZsuykdocwYRX7SF5Q5-166" value="return" style="html=1;verticalAlign=bottom;endArrow=open;dashed=1;endSize=8;edgeStyle=elbowEdgeStyle;elbow=vertical;curved=0;rounded=0;labelBackgroundColor=none;fontColor=default;strokeColor=#182E3E;" edge="1" parent="1">
          <mxGeometry x="-0.0033" relative="1" as="geometry">
            <mxPoint x="1415" y="610.1666666666667" as="sourcePoint" />
            <mxPoint x="780" y="610" as="targetPoint" />
            <Array as="points" />
            <mxPoint as="offset" />
          </mxGeometry>
        </mxCell>
        <mxCell id="oLZsuykdocwYRX7SF5Q5-174" value="" style="edgeStyle=none;orthogonalLoop=1;jettySize=auto;html=1;rounded=0;startArrow=classic;startFill=1;endArrow=none;endFill=0;labelBackgroundColor=none;fontColor=default;strokeColor=#182E3E;" edge="1" parent="1" source="oLZsuykdocwYRX7SF5Q5-176" target="oLZsuykdocwYRX7SF5Q5-159">
          <mxGeometry width="80" relative="1" as="geometry">
            <mxPoint x="1049.9966666666664" y="640" as="sourcePoint" />
            <mxPoint x="1420.33" y="640" as="targetPoint" />
            <Array as="points">
              <mxPoint x="1165.33" y="640" />
              <mxPoint x="1225.33" y="640" />
            </Array>
          </mxGeometry>
        </mxCell>
        <mxCell id="oLZsuykdocwYRX7SF5Q5-175" value="&lt;font style=&quot;&quot;&gt;&lt;br&gt;&lt;/font&gt;" style="edgeLabel;html=1;align=center;verticalAlign=middle;resizable=0;points=[];labelBackgroundColor=none;fontColor=#1A1A1A;" vertex="1" connectable="0" parent="oLZsuykdocwYRX7SF5Q5-174">
          <mxGeometry x="-0.6935" y="-1" relative="1" as="geometry">
            <mxPoint x="119" y="17" as="offset" />
          </mxGeometry>
        </mxCell>
        <mxCell id="oLZsuykdocwYRX7SF5Q5-177" value="Update&lt;br&gt;&lt;font style=&quot;font-size: 8px;&quot;&gt;on msg recv&lt;/font&gt;" style="edgeLabel;html=1;align=center;verticalAlign=middle;resizable=0;points=[];labelBackgroundColor=none;fontColor=#1A1A1A;" vertex="1" connectable="0" parent="oLZsuykdocwYRX7SF5Q5-174">
          <mxGeometry x="0.1017" y="-1" relative="1" as="geometry">
            <mxPoint x="139" y="-16" as="offset" />
          </mxGeometry>
        </mxCell>
        <mxCell id="oLZsuykdocwYRX7SF5Q5-178" value="" style="edgeStyle=none;orthogonalLoop=1;jettySize=auto;html=1;rounded=0;labelBackgroundColor=none;fontColor=default;strokeColor=#182E3E;" edge="1" parent="1">
          <mxGeometry width="80" relative="1" as="geometry">
            <mxPoint x="1050" y="670" as="sourcePoint" />
            <mxPoint x="1050" y="690" as="targetPoint" />
            <Array as="points">
              <mxPoint x="1115" y="670" />
              <mxPoint x="1115" y="690" />
            </Array>
          </mxGeometry>
        </mxCell>
        <mxCell id="oLZsuykdocwYRX7SF5Q5-179" value="&lt;font style=&quot;font-size: 10px;&quot;&gt;&lt;br&gt;&lt;/font&gt;" style="edgeLabel;html=1;align=center;verticalAlign=middle;resizable=0;points=[];labelBackgroundColor=none;fontColor=#1A1A1A;" vertex="1" connectable="0" parent="oLZsuykdocwYRX7SF5Q5-178">
          <mxGeometry x="-0.6935" y="-1" relative="1" as="geometry">
            <mxPoint x="46" y="-21" as="offset" />
          </mxGeometry>
        </mxCell>
        <mxCell id="oLZsuykdocwYRX7SF5Q5-180" value="StoreMessage" style="edgeLabel;html=1;align=center;verticalAlign=middle;resizable=0;points=[];labelBackgroundColor=none;fontColor=#1A1A1A;" vertex="1" connectable="0" parent="oLZsuykdocwYRX7SF5Q5-178">
          <mxGeometry x="-0.5168" y="-1" relative="1" as="geometry">
            <mxPoint x="3" y="-11" as="offset" />
          </mxGeometry>
        </mxCell>
        <mxCell id="oLZsuykdocwYRX7SF5Q5-182" style="edgeStyle=elbowEdgeStyle;rounded=0;orthogonalLoop=1;jettySize=auto;html=1;elbow=vertical;curved=0;labelBackgroundColor=none;fontColor=default;strokeColor=#182E3E;" edge="1" parent="1" source="oLZsuykdocwYRX7SF5Q5-176" target="oLZsuykdocwYRX7SF5Q5-181">
          <mxGeometry relative="1" as="geometry">
            <Array as="points">
              <mxPoint x="1110" y="710" />
            </Array>
          </mxGeometry>
        </mxCell>
        <mxCell id="oLZsuykdocwYRX7SF5Q5-183" value="&lt;font style=&quot;font-size: 10px;&quot;&gt;Round_*.CanProceed&lt;/font&gt;" style="edgeLabel;html=1;align=center;verticalAlign=middle;resizable=0;points=[];labelBackgroundColor=none;fontColor=#1A1A1A;" vertex="1" connectable="0" parent="oLZsuykdocwYRX7SF5Q5-182">
          <mxGeometry x="-0.3457" y="3" relative="1" as="geometry">
            <mxPoint x="12" y="-7" as="offset" />
          </mxGeometry>
        </mxCell>
        <mxCell id="oLZsuykdocwYRX7SF5Q5-184" value="return" style="html=1;verticalAlign=bottom;endArrow=open;dashed=1;endSize=8;edgeStyle=elbowEdgeStyle;elbow=vertical;curved=0;rounded=0;labelBackgroundColor=none;fontColor=default;strokeColor=#182E3E;" edge="1" parent="1">
          <mxGeometry relative="1" as="geometry">
            <mxPoint x="1165" y="729.9986206896551" as="sourcePoint" />
            <mxPoint x="1050" y="730.24" as="targetPoint" />
          </mxGeometry>
        </mxCell>
        <mxCell id="oLZsuykdocwYRX7SF5Q5-186" style="edgeStyle=elbowEdgeStyle;rounded=0;orthogonalLoop=1;jettySize=auto;html=1;elbow=vertical;curved=0;labelBackgroundColor=none;fontColor=default;strokeColor=#182E3E;" edge="1" parent="1" source="oLZsuykdocwYRX7SF5Q5-176" target="oLZsuykdocwYRX7SF5Q5-188">
          <mxGeometry relative="1" as="geometry">
            <mxPoint x="1050" y="770" as="sourcePoint" />
            <mxPoint x="1165" y="770" as="targetPoint" />
            <Array as="points">
              <mxPoint x="1110" y="770" />
            </Array>
          </mxGeometry>
        </mxCell>
        <mxCell id="oLZsuykdocwYRX7SF5Q5-189" value="return" style="html=1;verticalAlign=bottom;endArrow=open;dashed=1;endSize=8;edgeStyle=elbowEdgeStyle;elbow=vertical;curved=0;rounded=0;labelBackgroundColor=none;fontColor=default;strokeColor=#182E3E;" edge="1" parent="1">
          <mxGeometry x="0.0032" relative="1" as="geometry">
            <mxPoint x="1165" y="790.0034482758621" as="sourcePoint" />
            <mxPoint x="1050" y="790.0034482758621" as="targetPoint" />
            <mxPoint as="offset" />
          </mxGeometry>
        </mxCell>
        <mxCell id="oLZsuykdocwYRX7SF5Q5-190" value="&lt;font style=&quot;font-size: 10px;&quot;&gt;Round_*.Advance&lt;/font&gt;" style="edgeLabel;html=1;align=center;verticalAlign=middle;resizable=0;points=[];labelBackgroundColor=none;fontColor=#1A1A1A;" vertex="1" connectable="0" parent="1">
          <mxGeometry x="1100.0010344827585" y="760" as="geometry" />
        </mxCell>
        <mxCell id="oLZsuykdocwYRX7SF5Q5-192" style="edgeStyle=elbowEdgeStyle;rounded=0;orthogonalLoop=1;jettySize=auto;html=1;elbow=horizontal;curved=0;labelBackgroundColor=none;fontColor=default;strokeColor=#182E3E;" edge="1" parent="1" source="oLZsuykdocwYRX7SF5Q5-176" target="oLZsuykdocwYRX7SF5Q5-191">
          <mxGeometry relative="1" as="geometry">
            <mxPoint x="1050" y="840" as="sourcePoint" />
            <mxPoint x="1165" y="840" as="targetPoint" />
            <Array as="points">
              <mxPoint x="1110" y="840" />
            </Array>
          </mxGeometry>
        </mxCell>
        <mxCell id="oLZsuykdocwYRX7SF5Q5-195" value="Round_*.Start" style="edgeLabel;html=1;align=center;verticalAlign=middle;resizable=0;points=[];labelBackgroundColor=none;fontColor=#1A1A1A;" vertex="1" connectable="0" parent="oLZsuykdocwYRX7SF5Q5-192">
          <mxGeometry x="-0.4297" y="-2" relative="1" as="geometry">
            <mxPoint x="17" y="-12" as="offset" />
          </mxGeometry>
        </mxCell>
        <mxCell id="oLZsuykdocwYRX7SF5Q5-196" value="return" style="html=1;verticalAlign=bottom;endArrow=open;dashed=1;endSize=8;edgeStyle=elbowEdgeStyle;elbow=vertical;curved=0;rounded=0;labelBackgroundColor=none;fontColor=default;strokeColor=#182E3E;" edge="1" parent="1">
          <mxGeometry x="0.0032" relative="1" as="geometry">
            <mxPoint x="1165" y="860.0034482758621" as="sourcePoint" />
            <mxPoint x="1050" y="860.0034482758621" as="targetPoint" />
            <mxPoint as="offset" />
          </mxGeometry>
        </mxCell>
        <mxCell id="oLZsuykdocwYRX7SF5Q5-197" value="return" style="html=1;verticalAlign=bottom;endArrow=open;dashed=1;endSize=8;edgeStyle=elbowEdgeStyle;elbow=vertical;curved=0;rounded=0;labelBackgroundColor=none;fontColor=default;strokeColor=#182E3E;" edge="1" parent="1" target="oLZsuykdocwYRX7SF5Q5-159">
          <mxGeometry x="0.4309" relative="1" as="geometry">
            <mxPoint x="1300" y="890" as="sourcePoint" />
            <mxPoint x="1220" y="890" as="targetPoint" />
            <Array as="points">
              <mxPoint x="1050" y="890" />
            </Array>
            <mxPoint as="offset" />
          </mxGeometry>
        </mxCell>
        <mxCell id="oLZsuykdocwYRX7SF5Q5-201" value="" style="edgeStyle=none;orthogonalLoop=1;jettySize=auto;html=1;rounded=0;endArrow=oval;endFill=1;labelBackgroundColor=none;fontColor=default;strokeColor=#182E3E;" edge="1" parent="1" source="oLZsuykdocwYRX7SF5Q5-159">
          <mxGeometry width="80" relative="1" as="geometry">
            <mxPoint x="1440" y="930" as="sourcePoint" />
            <mxPoint x="1530" y="930" as="targetPoint" />
            <Array as="points" />
          </mxGeometry>
        </mxCell>
        <mxCell id="oLZsuykdocwYRX7SF5Q5-202" value="End on finish msg" style="edgeLabel;html=1;align=center;verticalAlign=middle;resizable=0;points=[];labelBackgroundColor=none;fontColor=#1A1A1A;" vertex="1" connectable="0" parent="oLZsuykdocwYRX7SF5Q5-201">
          <mxGeometry x="-0.1577" relative="1" as="geometry">
            <mxPoint y="-10" as="offset" />
          </mxGeometry>
        </mxCell>
        <mxCell id="oLZsuykdocwYRX7SF5Q5-205" value="" style="edgeStyle=none;orthogonalLoop=1;jettySize=auto;html=1;rounded=0;labelBackgroundColor=none;fontColor=default;strokeColor=#182E3E;" edge="1" parent="1">
          <mxGeometry width="80" relative="1" as="geometry">
            <mxPoint x="780" y="969.9999999999998" as="sourcePoint" />
            <mxPoint x="1415" y="969.9999999999998" as="targetPoint" />
          </mxGeometry>
        </mxCell>
        <mxCell id="oLZsuykdocwYRX7SF5Q5-206" value="processKeygen &lt;font style=&quot;font-size: 8px;&quot;&gt;(Obtain the data to be sent in each round and send it to other nodes until the end of the request command )&lt;/font&gt;" style="edgeLabel;html=1;align=center;verticalAlign=middle;resizable=0;points=[];fontSize=10;labelBackgroundColor=none;fontColor=#1A1A1A;" vertex="1" connectable="0" parent="oLZsuykdocwYRX7SF5Q5-205">
          <mxGeometry x="-0.6935" relative="1" as="geometry">
            <mxPoint x="133" y="-10" as="offset" />
          </mxGeometry>
        </mxCell>
        <mxCell id="oLZsuykdocwYRX7SF5Q5-208" value="" style="edgeStyle=none;orthogonalLoop=1;jettySize=auto;html=1;rounded=0;labelBackgroundColor=none;fontColor=default;strokeColor=#182E3E;" edge="1" parent="1">
          <mxGeometry width="80" relative="1" as="geometry">
            <mxPoint x="1425" y="980" as="sourcePoint" />
            <mxPoint x="1425" y="1000" as="targetPoint" />
            <Array as="points">
              <mxPoint x="1515" y="980" />
              <mxPoint x="1515" y="1000" />
            </Array>
          </mxGeometry>
        </mxCell>
        <mxCell id="oLZsuykdocwYRX7SF5Q5-209" value="&lt;font style=&quot;font-size: 10px;&quot;&gt;&lt;br&gt;&lt;/font&gt;" style="edgeLabel;html=1;align=center;verticalAlign=middle;resizable=0;points=[];labelBackgroundColor=none;fontColor=#1A1A1A;" vertex="1" connectable="0" parent="oLZsuykdocwYRX7SF5Q5-208">
          <mxGeometry x="-0.6935" y="-1" relative="1" as="geometry">
            <mxPoint x="46" y="-21" as="offset" />
          </mxGeometry>
        </mxCell>
        <mxCell id="oLZsuykdocwYRX7SF5Q5-210" value="&lt;font style=&quot;font-size: 11px;&quot;&gt;ProcessOutCh &lt;br&gt;&lt;/font&gt;&lt;font style=&quot;font-size: 8px;&quot;&gt;(broadcast msg to other nodes on outCh msg receival)&lt;/font&gt;" style="edgeLabel;html=1;align=center;verticalAlign=middle;resizable=0;points=[];labelBackgroundColor=none;fontColor=#1A1A1A;" vertex="1" connectable="0" parent="oLZsuykdocwYRX7SF5Q5-208">
          <mxGeometry x="-0.5168" y="-1" relative="1" as="geometry">
            <mxPoint x="51" y="-19" as="offset" />
          </mxGeometry>
        </mxCell>
        <mxCell id="oLZsuykdocwYRX7SF5Q5-211" value="" style="edgeStyle=none;orthogonalLoop=1;jettySize=auto;html=1;rounded=0;labelBackgroundColor=none;fontColor=default;strokeColor=#182E3E;" edge="1" parent="1">
          <mxGeometry width="80" relative="1" as="geometry">
            <mxPoint x="1425" y="1029.9999999999998" as="sourcePoint" />
            <mxPoint x="1425" y="1049.9999999999998" as="targetPoint" />
            <Array as="points">
              <mxPoint x="1580.33" y="1030" />
              <mxPoint x="1580.33" y="1050" />
            </Array>
          </mxGeometry>
        </mxCell>
        <mxCell id="oLZsuykdocwYRX7SF5Q5-212" value="&lt;font style=&quot;font-size: 10px;&quot;&gt;&lt;br&gt;&lt;/font&gt;" style="edgeLabel;html=1;align=center;verticalAlign=middle;resizable=0;points=[];labelBackgroundColor=none;fontColor=#1A1A1A;" vertex="1" connectable="0" parent="oLZsuykdocwYRX7SF5Q5-211">
          <mxGeometry x="-0.6935" y="-1" relative="1" as="geometry">
            <mxPoint x="46" y="-21" as="offset" />
          </mxGeometry>
        </mxCell>
        <mxCell id="oLZsuykdocwYRX7SF5Q5-213" value="&lt;font style=&quot;font-size: 8px;&quot;&gt;process end key generation on endCh msg receival&lt;/font&gt;" style="edgeLabel;html=1;align=center;verticalAlign=middle;resizable=0;points=[];labelBackgroundColor=none;fontColor=#1A1A1A;" vertex="1" connectable="0" parent="oLZsuykdocwYRX7SF5Q5-211">
          <mxGeometry x="-0.5168" y="-1" relative="1" as="geometry">
            <mxPoint x="15" y="-11" as="offset" />
          </mxGeometry>
        </mxCell>
        <mxCell id="oLZsuykdocwYRX7SF5Q5-217" value="return" style="html=1;verticalAlign=bottom;endArrow=open;dashed=1;endSize=8;edgeStyle=elbowEdgeStyle;elbow=vertical;curved=0;rounded=0;labelBackgroundColor=none;fontColor=default;strokeColor=#182E3E;" edge="1" parent="1">
          <mxGeometry x="-0.0033" relative="1" as="geometry">
            <mxPoint x="1415" y="1069.9966666666667" as="sourcePoint" />
            <mxPoint x="780" y="1069.9966666666667" as="targetPoint" />
            <Array as="points" />
            <mxPoint as="offset" />
          </mxGeometry>
        </mxCell>
        <mxCell id="oLZsuykdocwYRX7SF5Q5-221" value="" style="edgeStyle=none;orthogonalLoop=1;jettySize=auto;html=1;rounded=0;labelBackgroundColor=none;fontColor=default;strokeColor=#182E3E;" edge="1" parent="1">
          <mxGeometry width="80" relative="1" as="geometry">
            <mxPoint x="765" y="1160" as="sourcePoint" />
            <mxPoint x="765" y="1180" as="targetPoint" />
            <Array as="points">
              <mxPoint x="969.9999999999999" y="1160" />
              <mxPoint x="969.9999999999999" y="1180" />
            </Array>
          </mxGeometry>
        </mxCell>
        <mxCell id="oLZsuykdocwYRX7SF5Q5-222" value="&lt;font style=&quot;font-size: 10px;&quot;&gt;&lt;br&gt;&lt;/font&gt;" style="edgeLabel;html=1;align=center;verticalAlign=middle;resizable=0;points=[];labelBackgroundColor=none;fontColor=#1A1A1A;" vertex="1" connectable="0" parent="oLZsuykdocwYRX7SF5Q5-221">
          <mxGeometry x="-0.6935" y="-1" relative="1" as="geometry">
            <mxPoint x="46" y="-21" as="offset" />
          </mxGeometry>
        </mxCell>
        <mxCell id="oLZsuykdocwYRX7SF5Q5-223" value="&lt;span style=&quot;font-size: 8px;&quot;&gt;postprocess key generation (store in db, etc)&lt;/span&gt;" style="edgeLabel;html=1;align=center;verticalAlign=middle;resizable=0;points=[];labelBackgroundColor=none;fontColor=#1A1A1A;" vertex="1" connectable="0" parent="oLZsuykdocwYRX7SF5Q5-221">
          <mxGeometry x="-0.5168" y="-1" relative="1" as="geometry">
            <mxPoint x="-19" y="-11" as="offset" />
          </mxGeometry>
        </mxCell>
        <mxCell id="oLZsuykdocwYRX7SF5Q5-224" value="return" style="html=1;verticalAlign=bottom;endArrow=open;dashed=1;endSize=8;edgeStyle=elbowEdgeStyle;elbow=vertical;curved=0;rounded=0;labelBackgroundColor=none;fontColor=default;strokeColor=#182E3E;" edge="1" parent="1">
          <mxGeometry x="-0.0033" relative="1" as="geometry">
            <mxPoint x="755" y="1190" as="sourcePoint" />
            <mxPoint x="545" y="1190" as="targetPoint" />
            <Array as="points">
              <mxPoint x="690" y="1190" />
            </Array>
            <mxPoint as="offset" />
          </mxGeometry>
        </mxCell>
        <mxCell id="B24YX5WednT0JCPtrTEY-1" value="" style="shape=umlLifeline;perimeter=lifelinePerimeter;whiteSpace=wrap;html=1;container=1;dropTarget=0;collapsible=0;recursiveResize=0;outlineConnect=0;portConstraint=eastwest;newEdgeStyle={&quot;edgeStyle&quot;:&quot;elbowEdgeStyle&quot;,&quot;elbow&quot;:&quot;vertical&quot;,&quot;curved&quot;:0,&quot;rounded&quot;:0};participant=umlActor;labelBackgroundColor=none;fillColor=#F5AB50;strokeColor=#909090;fontColor=#1A1A1A;" vertex="1" parent="1">
          <mxGeometry x="135" y="1430" width="20" height="1290" as="geometry" />
        </mxCell>
        <mxCell id="B24YX5WednT0JCPtrTEY-2" value="" style="shape=umlLifeline;perimeter=lifelinePerimeter;whiteSpace=wrap;html=1;container=1;dropTarget=0;collapsible=0;recursiveResize=0;outlineConnect=0;portConstraint=eastwest;newEdgeStyle={&quot;edgeStyle&quot;:&quot;elbowEdgeStyle&quot;,&quot;elbow&quot;:&quot;vertical&quot;,&quot;curved&quot;:0,&quot;rounded&quot;:0};participant=umlEntity;labelBackgroundColor=none;fillColor=#F5AB50;strokeColor=#909090;fontColor=#1A1A1A;" vertex="1" parent="1">
          <mxGeometry x="225" y="1430" width="40" height="1290" as="geometry" />
        </mxCell>
        <mxCell id="B24YX5WednT0JCPtrTEY-3" value="" style="html=1;points=[];perimeter=orthogonalPerimeter;outlineConnect=0;targetShapes=umlLifeline;portConstraint=eastwest;newEdgeStyle={&quot;edgeStyle&quot;:&quot;elbowEdgeStyle&quot;,&quot;elbow&quot;:&quot;vertical&quot;,&quot;curved&quot;:0,&quot;rounded&quot;:0};labelBackgroundColor=none;fillColor=#F5AB50;strokeColor=#909090;fontColor=#1A1A1A;" vertex="1" parent="B24YX5WednT0JCPtrTEY-2">
          <mxGeometry x="15" y="60" width="10" height="1220" as="geometry" />
        </mxCell>
        <mxCell id="B24YX5WednT0JCPtrTEY-4" value="RPC sender" style="text;html=1;align=center;verticalAlign=middle;resizable=0;points=[];autosize=1;strokeColor=none;fillColor=none;labelBackgroundColor=none;fontColor=#1A1A1A;" vertex="1" parent="1">
          <mxGeometry x="100" y="1400" width="90" height="30" as="geometry" />
        </mxCell>
        <mxCell id="B24YX5WednT0JCPtrTEY-5" value="RPC Worker&lt;br&gt;&lt;font style=&quot;font-size: 8px;&quot;&gt;smpc.worker&lt;/font&gt;" style="text;html=1;align=center;verticalAlign=middle;resizable=0;points=[];autosize=1;strokeColor=none;fillColor=none;labelBackgroundColor=none;fontColor=#1A1A1A;" vertex="1" parent="1">
          <mxGeometry x="200" y="1395" width="90" height="40" as="geometry" />
        </mxCell>
        <mxCell id="B24YX5WednT0JCPtrTEY-6" value="&lt;span style=&quot;font-size: 10px;&quot;&gt;request&lt;/span&gt;" style="html=1;verticalAlign=bottom;endArrow=block;edgeStyle=elbowEdgeStyle;elbow=vertical;curved=0;rounded=0;labelBackgroundColor=none;fontColor=default;strokeColor=#182E3E;" edge="1" parent="1" target="B24YX5WednT0JCPtrTEY-3">
          <mxGeometry x="-0.0105" width="80" relative="1" as="geometry">
            <mxPoint x="145" y="1490" as="sourcePoint" />
            <mxPoint x="225" y="1490" as="targetPoint" />
            <mxPoint as="offset" />
          </mxGeometry>
        </mxCell>
        <mxCell id="B24YX5WednT0JCPtrTEY-7" value="&lt;font style=&quot;font-size: 10px;&quot;&gt;req.rpcdata.Run&lt;/font&gt;" style="html=1;verticalAlign=bottom;endArrow=block;edgeStyle=elbowEdgeStyle;elbow=vertical;curved=0;rounded=0;labelBackgroundColor=none;fontColor=default;strokeColor=#182E3E;" edge="1" parent="1" source="B24YX5WednT0JCPtrTEY-3" target="B24YX5WednT0JCPtrTEY-9">
          <mxGeometry x="-0.1" width="80" relative="1" as="geometry">
            <mxPoint x="245" y="1500" as="sourcePoint" />
            <mxPoint x="325" y="1500" as="targetPoint" />
            <mxPoint as="offset" />
            <Array as="points">
              <mxPoint x="265" y="1500" />
            </Array>
          </mxGeometry>
        </mxCell>
        <mxCell id="B24YX5WednT0JCPtrTEY-8" value="" style="shape=umlLifeline;perimeter=lifelinePerimeter;whiteSpace=wrap;html=1;container=1;dropTarget=0;collapsible=0;recursiveResize=0;outlineConnect=0;portConstraint=eastwest;newEdgeStyle={&quot;edgeStyle&quot;:&quot;elbowEdgeStyle&quot;,&quot;elbow&quot;:&quot;vertical&quot;,&quot;curved&quot;:0,&quot;rounded&quot;:0};participant=umlEntity;labelBackgroundColor=none;fillColor=#F5AB50;strokeColor=#909090;fontColor=#1A1A1A;" vertex="1" parent="1">
          <mxGeometry x="315" y="1430" width="40" height="1290" as="geometry" />
        </mxCell>
        <mxCell id="B24YX5WednT0JCPtrTEY-9" value="" style="html=1;points=[];perimeter=orthogonalPerimeter;outlineConnect=0;targetShapes=umlLifeline;portConstraint=eastwest;newEdgeStyle={&quot;edgeStyle&quot;:&quot;elbowEdgeStyle&quot;,&quot;elbow&quot;:&quot;vertical&quot;,&quot;curved&quot;:0,&quot;rounded&quot;:0};labelBackgroundColor=none;fillColor=#F5AB50;strokeColor=#909090;fontColor=#1A1A1A;" vertex="1" parent="B24YX5WednT0JCPtrTEY-8">
          <mxGeometry x="15" y="60" width="10" height="1210" as="geometry" />
        </mxCell>
        <mxCell id="B24YX5WednT0JCPtrTEY-10" value="" style="edgeStyle=none;orthogonalLoop=1;jettySize=auto;html=1;rounded=0;labelBackgroundColor=none;fontColor=default;strokeColor=#182E3E;" edge="1" parent="B24YX5WednT0JCPtrTEY-8" source="B24YX5WednT0JCPtrTEY-9" target="B24YX5WednT0JCPtrTEY-9">
          <mxGeometry width="80" relative="1" as="geometry">
            <mxPoint x="30" y="80" as="sourcePoint" />
            <mxPoint x="20" y="100" as="targetPoint" />
            <Array as="points">
              <mxPoint x="70" y="80" />
              <mxPoint x="70" y="100" />
            </Array>
          </mxGeometry>
        </mxCell>
        <mxCell id="B24YX5WednT0JCPtrTEY-11" value="&lt;font style=&quot;font-size: 10px;&quot;&gt;DecryptMsg&lt;/font&gt;" style="edgeLabel;html=1;align=center;verticalAlign=middle;resizable=0;points=[];labelBackgroundColor=none;fontColor=#1A1A1A;" connectable="0" vertex="1" parent="B24YX5WednT0JCPtrTEY-10">
          <mxGeometry x="-0.6935" y="-1" relative="1" as="geometry">
            <mxPoint x="11" y="-11" as="offset" />
          </mxGeometry>
        </mxCell>
        <mxCell id="B24YX5WednT0JCPtrTEY-13" value="&lt;font style=&quot;&quot;&gt;&lt;font style=&quot;font-size: 12px;&quot;&gt;Msg Processing&lt;/font&gt;&lt;br&gt;&lt;span style=&quot;font-size: 8px;&quot;&gt;smpc.msg&lt;/span&gt;&lt;/font&gt;" style="text;html=1;align=center;verticalAlign=middle;resizable=0;points=[];autosize=1;strokeColor=none;fillColor=none;labelBackgroundColor=none;fontColor=#1A1A1A;" vertex="1" parent="1">
          <mxGeometry x="280" y="1395" width="110" height="40" as="geometry" />
        </mxCell>
        <mxCell id="B24YX5WednT0JCPtrTEY-14" value="MsgRun" style="shape=umlFrame;whiteSpace=wrap;html=1;pointerEvents=0;labelBackgroundColor=none;fillColor=#F5AB50;strokeColor=#909090;fontColor=#1A1A1A;" vertex="1" parent="1">
          <mxGeometry x="335" y="1540" width="140" height="80" as="geometry" />
        </mxCell>
        <mxCell id="B24YX5WednT0JCPtrTEY-16" value="&lt;font style=&quot;font-size: 10px;&quot;&gt;[ msgType == &quot;SIGN&quot; ]&lt;/font&gt;" style="text;html=1;align=left;verticalAlign=middle;resizable=0;points=[];autosize=1;strokeColor=none;fillColor=none;rounded=0;glass=0;rotation=0;labelBackgroundColor=none;fontColor=#1A1A1A;" vertex="1" parent="1">
          <mxGeometry x="340" y="1570" width="120" height="30" as="geometry" />
        </mxCell>
        <mxCell id="B24YX5WednT0JCPtrTEY-17" value="" style="shape=umlLifeline;perimeter=lifelinePerimeter;whiteSpace=wrap;html=1;container=1;dropTarget=0;collapsible=0;recursiveResize=0;outlineConnect=0;portConstraint=eastwest;newEdgeStyle={&quot;edgeStyle&quot;:&quot;elbowEdgeStyle&quot;,&quot;elbow&quot;:&quot;vertical&quot;,&quot;curved&quot;:0,&quot;rounded&quot;:0};participant=umlEntity;labelBackgroundColor=none;fillColor=#F5AB50;strokeColor=#909090;fontColor=#1A1A1A;" vertex="1" parent="1">
          <mxGeometry x="515" y="1430" width="40" height="1290" as="geometry" />
        </mxCell>
        <mxCell id="B24YX5WednT0JCPtrTEY-18" value="" style="html=1;points=[];perimeter=orthogonalPerimeter;outlineConnect=0;targetShapes=umlLifeline;portConstraint=eastwest;newEdgeStyle={&quot;edgeStyle&quot;:&quot;elbowEdgeStyle&quot;,&quot;elbow&quot;:&quot;vertical&quot;,&quot;curved&quot;:0,&quot;rounded&quot;:0};labelBackgroundColor=none;fillColor=#F5AB50;strokeColor=#909090;fontColor=#1A1A1A;" vertex="1" parent="B24YX5WednT0JCPtrTEY-17">
          <mxGeometry x="15" y="150" width="10" height="1100" as="geometry" />
        </mxCell>
        <mxCell id="B24YX5WednT0JCPtrTEY-25" value="Keygen start point&lt;br&gt;&lt;font style=&quot;font-size: 8px;&quot;&gt;smpc.api_reqsign.ReqSmpcSign&lt;br&gt;&lt;/font&gt;" style="text;html=1;align=center;verticalAlign=middle;resizable=0;points=[];autosize=1;strokeColor=none;fillColor=none;labelBackgroundColor=none;fontColor=#1A1A1A;" vertex="1" parent="1">
          <mxGeometry x="465" y="1390" width="140" height="40" as="geometry" />
        </mxCell>
        <mxCell id="B24YX5WednT0JCPtrTEY-26" value="" style="edgeStyle=none;orthogonalLoop=1;jettySize=auto;html=1;rounded=0;labelBackgroundColor=none;fontColor=default;strokeColor=#182E3E;" edge="1" parent="1" target="B24YX5WednT0JCPtrTEY-18">
          <mxGeometry width="80" relative="1" as="geometry">
            <mxPoint x="475" y="1585" as="sourcePoint" />
            <mxPoint x="545" y="1584.66" as="targetPoint" />
            <Array as="points" />
          </mxGeometry>
        </mxCell>
        <mxCell id="B24YX5WednT0JCPtrTEY-27" value="&lt;font style=&quot;font-size: 10px;&quot;&gt;DoReq&lt;/font&gt;" style="edgeLabel;html=1;align=center;verticalAlign=middle;resizable=0;points=[];fontSize=10;labelBackgroundColor=none;fontColor=#1A1A1A;" connectable="0" vertex="1" parent="B24YX5WednT0JCPtrTEY-26">
          <mxGeometry x="0.0212" y="1" relative="1" as="geometry">
            <mxPoint x="-9" y="-7" as="offset" />
          </mxGeometry>
        </mxCell>
        <mxCell id="B24YX5WednT0JCPtrTEY-33" value="return" style="html=1;verticalAlign=bottom;endArrow=open;dashed=1;endSize=8;edgeStyle=elbowEdgeStyle;elbow=vertical;curved=0;rounded=0;labelBackgroundColor=none;fontColor=default;strokeColor=#182E3E;" edge="1" parent="1" target="B24YX5WednT0JCPtrTEY-9">
          <mxGeometry x="0.3784" relative="1" as="geometry">
            <mxPoint x="530" y="2570.4285714285716" as="sourcePoint" />
            <mxPoint x="340" y="2570" as="targetPoint" />
            <Array as="points">
              <mxPoint x="520" y="2680" />
            </Array>
            <mxPoint as="offset" />
          </mxGeometry>
        </mxCell>
        <mxCell id="B24YX5WednT0JCPtrTEY-34" value="return" style="html=1;verticalAlign=bottom;endArrow=open;dashed=1;endSize=8;edgeStyle=elbowEdgeStyle;elbow=vertical;curved=0;rounded=0;labelBackgroundColor=none;fontColor=default;strokeColor=#182E3E;" edge="1" parent="1" target="B24YX5WednT0JCPtrTEY-3">
          <mxGeometry x="0.579" relative="1" as="geometry">
            <mxPoint x="330" y="2579.996666666667" as="sourcePoint" />
            <mxPoint x="245" y="2580.33" as="targetPoint" />
            <Array as="points">
              <mxPoint x="320" y="2690" />
            </Array>
            <mxPoint as="offset" />
          </mxGeometry>
        </mxCell>
        <mxCell id="B24YX5WednT0JCPtrTEY-35" value="" style="shape=umlLifeline;perimeter=lifelinePerimeter;whiteSpace=wrap;html=1;container=1;dropTarget=0;collapsible=0;recursiveResize=0;outlineConnect=0;portConstraint=eastwest;newEdgeStyle={&quot;edgeStyle&quot;:&quot;elbowEdgeStyle&quot;,&quot;elbow&quot;:&quot;vertical&quot;,&quot;curved&quot;:0,&quot;rounded&quot;:0};participant=umlEntity;labelBackgroundColor=none;fillColor=#F5AB50;strokeColor=#909090;fontColor=#1A1A1A;" vertex="1" parent="1">
          <mxGeometry x="620" y="1430" width="40" height="1290" as="geometry" />
        </mxCell>
        <mxCell id="B24YX5WednT0JCPtrTEY-46" value="" style="html=1;points=[];perimeter=orthogonalPerimeter;outlineConnect=0;targetShapes=umlLifeline;portConstraint=eastwest;newEdgeStyle={&quot;edgeStyle&quot;:&quot;elbowEdgeStyle&quot;,&quot;elbow&quot;:&quot;vertical&quot;,&quot;curved&quot;:0,&quot;rounded&quot;:0};labelBackgroundColor=none;fillColor=#F5AB50;strokeColor=#909090;fontColor=#1A1A1A;" vertex="1" parent="B24YX5WednT0JCPtrTEY-35">
          <mxGeometry x="15" y="160" width="10" height="40" as="geometry" />
        </mxCell>
        <mxCell id="B24YX5WednT0JCPtrTEY-59" value="" style="html=1;points=[];perimeter=orthogonalPerimeter;outlineConnect=0;targetShapes=umlLifeline;portConstraint=eastwest;newEdgeStyle={&quot;edgeStyle&quot;:&quot;elbowEdgeStyle&quot;,&quot;elbow&quot;:&quot;vertical&quot;,&quot;curved&quot;:0,&quot;rounded&quot;:0};labelBackgroundColor=none;fillColor=#F5AB50;strokeColor=#909090;fontColor=#1A1A1A;" vertex="1" parent="B24YX5WednT0JCPtrTEY-35">
          <mxGeometry x="15" y="240" width="10" height="40" as="geometry" />
        </mxCell>
        <mxCell id="B24YX5WednT0JCPtrTEY-65" value="" style="html=1;points=[];perimeter=orthogonalPerimeter;outlineConnect=0;targetShapes=umlLifeline;portConstraint=eastwest;newEdgeStyle={&quot;edgeStyle&quot;:&quot;elbowEdgeStyle&quot;,&quot;elbow&quot;:&quot;vertical&quot;,&quot;curved&quot;:0,&quot;rounded&quot;:0};labelBackgroundColor=none;fillColor=#F5AB50;strokeColor=#909090;fontColor=#1A1A1A;" vertex="1" parent="B24YX5WednT0JCPtrTEY-35">
          <mxGeometry x="15" y="300" width="10" height="40" as="geometry" />
        </mxCell>
        <mxCell id="B24YX5WednT0JCPtrTEY-43" value="&lt;font style=&quot;&quot;&gt;Local DB&lt;br&gt;&lt;/font&gt;&lt;font style=&quot;font-size: 8px;&quot;&gt;smpc.localdb&lt;br&gt;&lt;/font&gt;" style="text;html=1;align=center;verticalAlign=middle;resizable=0;points=[];autosize=1;strokeColor=none;fillColor=none;labelBackgroundColor=none;fontColor=#1A1A1A;" vertex="1" parent="1">
          <mxGeometry x="605" y="1390" width="70" height="40" as="geometry" />
        </mxCell>
        <mxCell id="B24YX5WednT0JCPtrTEY-44" value="" style="edgeStyle=none;orthogonalLoop=1;jettySize=auto;html=1;rounded=0;labelBackgroundColor=none;fontColor=default;strokeColor=#182E3E;" edge="1" parent="1" source="B24YX5WednT0JCPtrTEY-18" target="B24YX5WednT0JCPtrTEY-46">
          <mxGeometry width="80" relative="1" as="geometry">
            <mxPoint x="485" y="1595" as="sourcePoint" />
            <mxPoint x="540" y="1595" as="targetPoint" />
            <Array as="points">
              <mxPoint x="580" y="1600" />
            </Array>
          </mxGeometry>
        </mxCell>
        <mxCell id="B24YX5WednT0JCPtrTEY-45" value="&lt;font style=&quot;font-size: 10px;&quot;&gt;GetPubKeyData&lt;/font&gt;" style="edgeLabel;html=1;align=center;verticalAlign=middle;resizable=0;points=[];fontSize=10;labelBackgroundColor=none;fontColor=#1A1A1A;" connectable="0" vertex="1" parent="B24YX5WednT0JCPtrTEY-44">
          <mxGeometry x="0.0212" y="1" relative="1" as="geometry">
            <mxPoint x="-9" y="-9" as="offset" />
          </mxGeometry>
        </mxCell>
        <mxCell id="B24YX5WednT0JCPtrTEY-47" value="return" style="html=1;verticalAlign=bottom;endArrow=open;dashed=1;endSize=8;edgeStyle=elbowEdgeStyle;elbow=vertical;curved=0;rounded=0;labelBackgroundColor=none;fontColor=default;strokeColor=#182E3E;" edge="1" parent="1" source="B24YX5WednT0JCPtrTEY-46">
          <mxGeometry relative="1" as="geometry">
            <mxPoint x="685" y="1620" as="sourcePoint" />
            <mxPoint x="540" y="1620" as="targetPoint" />
            <Array as="points" />
          </mxGeometry>
        </mxCell>
        <mxCell id="B24YX5WednT0JCPtrTEY-48" value="" style="shape=umlLifeline;perimeter=lifelinePerimeter;whiteSpace=wrap;html=1;container=1;dropTarget=0;collapsible=0;recursiveResize=0;outlineConnect=0;portConstraint=eastwest;newEdgeStyle={&quot;edgeStyle&quot;:&quot;elbowEdgeStyle&quot;,&quot;elbow&quot;:&quot;vertical&quot;,&quot;curved&quot;:0,&quot;rounded&quot;:0};participant=umlEntity;labelBackgroundColor=none;fillColor=#F5AB50;strokeColor=#909090;fontColor=#1A1A1A;" vertex="1" parent="1">
          <mxGeometry x="800" y="1430" width="40" height="1290" as="geometry" />
        </mxCell>
        <mxCell id="B24YX5WednT0JCPtrTEY-56" value="" style="html=1;points=[];perimeter=orthogonalPerimeter;outlineConnect=0;targetShapes=umlLifeline;portConstraint=eastwest;newEdgeStyle={&quot;edgeStyle&quot;:&quot;elbowEdgeStyle&quot;,&quot;elbow&quot;:&quot;vertical&quot;,&quot;curved&quot;:0,&quot;rounded&quot;:0};labelBackgroundColor=none;fillColor=#F5AB50;strokeColor=#909090;fontColor=#1A1A1A;" vertex="1" parent="B24YX5WednT0JCPtrTEY-48">
          <mxGeometry x="15" y="220" width="10" height="1020" as="geometry" />
        </mxCell>
        <mxCell id="B24YX5WednT0JCPtrTEY-313" value="" style="edgeStyle=none;orthogonalLoop=1;jettySize=auto;html=1;rounded=0;labelBackgroundColor=none;fontColor=default;strokeColor=#182E3E;" edge="1" parent="B24YX5WednT0JCPtrTEY-48" source="B24YX5WednT0JCPtrTEY-56" target="B24YX5WednT0JCPtrTEY-56">
          <mxGeometry width="80" relative="1" as="geometry">
            <mxPoint x="40" y="1210" as="sourcePoint" />
            <mxPoint x="40" y="1230" as="targetPoint" />
            <Array as="points">
              <mxPoint x="245" y="1210" />
              <mxPoint x="245" y="1230" />
            </Array>
          </mxGeometry>
        </mxCell>
        <mxCell id="B24YX5WednT0JCPtrTEY-314" value="&lt;font style=&quot;font-size: 10px;&quot;&gt;&lt;br&gt;&lt;/font&gt;" style="edgeLabel;html=1;align=center;verticalAlign=middle;resizable=0;points=[];labelBackgroundColor=none;fontColor=#1A1A1A;" connectable="0" vertex="1" parent="B24YX5WednT0JCPtrTEY-313">
          <mxGeometry x="-0.6935" y="-1" relative="1" as="geometry">
            <mxPoint x="46" y="-21" as="offset" />
          </mxGeometry>
        </mxCell>
        <mxCell id="B24YX5WednT0JCPtrTEY-315" value="&lt;span style=&quot;font-size: 8px;&quot;&gt;postprocess sign signature (store in db, etc)&lt;/span&gt;" style="edgeLabel;html=1;align=center;verticalAlign=middle;resizable=0;points=[];labelBackgroundColor=none;fontColor=#1A1A1A;" connectable="0" vertex="1" parent="B24YX5WednT0JCPtrTEY-313">
          <mxGeometry x="-0.5168" y="-1" relative="1" as="geometry">
            <mxPoint x="-19" y="-11" as="offset" />
          </mxGeometry>
        </mxCell>
        <mxCell id="B24YX5WednT0JCPtrTEY-55" value="&lt;font style=&quot;&quot;&gt;&lt;font style=&quot;font-size: 12px;&quot;&gt;Req Process&lt;/font&gt;&lt;br&gt;&lt;span style=&quot;font-size: 8px;&quot;&gt;smpc.reqsign&lt;/span&gt;&lt;/font&gt;" style="text;html=1;align=center;verticalAlign=middle;resizable=0;points=[];autosize=1;strokeColor=none;fillColor=none;labelBackgroundColor=none;fontColor=#1A1A1A;" vertex="1" parent="1">
          <mxGeometry x="775" y="1390" width="90" height="40" as="geometry" />
        </mxCell>
        <mxCell id="B24YX5WednT0JCPtrTEY-57" value="" style="edgeStyle=none;orthogonalLoop=1;jettySize=auto;html=1;rounded=0;labelBackgroundColor=none;fontColor=default;strokeColor=#182E3E;" edge="1" parent="1" source="B24YX5WednT0JCPtrTEY-18" target="B24YX5WednT0JCPtrTEY-56">
          <mxGeometry width="80" relative="1" as="geometry">
            <mxPoint x="542.5" y="1650" as="sourcePoint" />
            <mxPoint x="737.5" y="1650" as="targetPoint" />
            <Array as="points">
              <mxPoint x="595.5" y="1650" />
            </Array>
          </mxGeometry>
        </mxCell>
        <mxCell id="B24YX5WednT0JCPtrTEY-58" value="&lt;font style=&quot;font-size: 10px;&quot;&gt;SignEC3&lt;/font&gt;" style="edgeLabel;html=1;align=center;verticalAlign=middle;resizable=0;points=[];fontSize=10;labelBackgroundColor=none;fontColor=#1A1A1A;" connectable="0" vertex="1" parent="B24YX5WednT0JCPtrTEY-57">
          <mxGeometry x="0.0212" y="1" relative="1" as="geometry">
            <mxPoint x="-120" y="-9" as="offset" />
          </mxGeometry>
        </mxCell>
        <mxCell id="B24YX5WednT0JCPtrTEY-60" value="" style="edgeStyle=none;orthogonalLoop=1;jettySize=auto;html=1;rounded=0;startArrow=classic;startFill=1;endArrow=none;endFill=0;labelBackgroundColor=none;fontColor=default;strokeColor=#182E3E;" edge="1" parent="1" source="B24YX5WednT0JCPtrTEY-59" target="B24YX5WednT0JCPtrTEY-56">
          <mxGeometry width="80" relative="1" as="geometry">
            <mxPoint x="650" y="1670" as="sourcePoint" />
            <mxPoint x="745" y="1670" as="targetPoint" />
            <Array as="points">
              <mxPoint x="680" y="1680" />
            </Array>
          </mxGeometry>
        </mxCell>
        <mxCell id="B24YX5WednT0JCPtrTEY-61" value="&lt;font style=&quot;font-size: 10px;&quot;&gt;GetPubKeyData&lt;/font&gt;" style="edgeLabel;html=1;align=center;verticalAlign=middle;resizable=0;points=[];fontSize=10;labelBackgroundColor=none;fontColor=#1A1A1A;" connectable="0" vertex="1" parent="B24YX5WednT0JCPtrTEY-60">
          <mxGeometry x="0.0212" y="1" relative="1" as="geometry">
            <mxPoint x="43" y="-9" as="offset" />
          </mxGeometry>
        </mxCell>
        <mxCell id="B24YX5WednT0JCPtrTEY-63" value="" style="edgeStyle=none;orthogonalLoop=1;jettySize=auto;html=1;rounded=0;dashed=1;labelBackgroundColor=none;fontColor=default;strokeColor=#182E3E;" edge="1" parent="1" target="B24YX5WednT0JCPtrTEY-56">
          <mxGeometry width="80" relative="1" as="geometry">
            <mxPoint x="645" y="1700" as="sourcePoint" />
            <mxPoint x="735" y="1700" as="targetPoint" />
            <Array as="points" />
          </mxGeometry>
        </mxCell>
        <mxCell id="B24YX5WednT0JCPtrTEY-64" value="return" style="edgeLabel;html=1;align=center;verticalAlign=middle;resizable=0;points=[];fontSize=10;labelBackgroundColor=none;fontColor=#1A1A1A;" connectable="0" vertex="1" parent="B24YX5WednT0JCPtrTEY-63">
          <mxGeometry x="0.1689" y="-1" relative="1" as="geometry">
            <mxPoint x="-8" y="-11" as="offset" />
          </mxGeometry>
        </mxCell>
        <mxCell id="B24YX5WednT0JCPtrTEY-67" value="" style="edgeStyle=none;orthogonalLoop=1;jettySize=auto;html=1;rounded=0;startArrow=classic;startFill=1;endArrow=none;endFill=0;labelBackgroundColor=none;fontColor=default;strokeColor=#182E3E;" edge="1" parent="1" target="B24YX5WednT0JCPtrTEY-56">
          <mxGeometry width="80" relative="1" as="geometry">
            <mxPoint x="645" y="1740" as="sourcePoint" />
            <mxPoint x="735" y="1740" as="targetPoint" />
            <Array as="points">
              <mxPoint x="690" y="1740" />
            </Array>
          </mxGeometry>
        </mxCell>
        <mxCell id="B24YX5WednT0JCPtrTEY-68" value="&lt;font style=&quot;font-size: 10px;&quot;&gt;getSKU1FromLocalDb&lt;/font&gt;" style="edgeLabel;html=1;align=center;verticalAlign=middle;resizable=0;points=[];fontSize=10;labelBackgroundColor=none;fontColor=#1A1A1A;" connectable="0" vertex="1" parent="B24YX5WednT0JCPtrTEY-67">
          <mxGeometry x="0.0212" y="1" relative="1" as="geometry">
            <mxPoint x="28" y="-9" as="offset" />
          </mxGeometry>
        </mxCell>
        <mxCell id="B24YX5WednT0JCPtrTEY-69" value="" style="edgeStyle=none;orthogonalLoop=1;jettySize=auto;html=1;rounded=0;dashed=1;labelBackgroundColor=none;fontColor=default;strokeColor=#182E3E;" edge="1" parent="1" source="B24YX5WednT0JCPtrTEY-65" target="B24YX5WednT0JCPtrTEY-56">
          <mxGeometry width="80" relative="1" as="geometry">
            <mxPoint x="650" y="1760" as="sourcePoint" />
            <mxPoint x="820" y="1760" as="targetPoint" />
            <Array as="points">
              <mxPoint x="730" y="1760" />
            </Array>
          </mxGeometry>
        </mxCell>
        <mxCell id="B24YX5WednT0JCPtrTEY-70" value="return" style="edgeLabel;html=1;align=center;verticalAlign=middle;resizable=0;points=[];fontSize=10;labelBackgroundColor=none;fontColor=#1A1A1A;" connectable="0" vertex="1" parent="B24YX5WednT0JCPtrTEY-69">
          <mxGeometry x="0.1689" y="-1" relative="1" as="geometry">
            <mxPoint x="-8" y="-11" as="offset" />
          </mxGeometry>
        </mxCell>
        <mxCell id="B24YX5WednT0JCPtrTEY-71" value="" style="edgeStyle=none;orthogonalLoop=1;jettySize=auto;html=1;rounded=0;labelBackgroundColor=none;fontColor=default;strokeColor=#182E3E;" edge="1" parent="1" source="B24YX5WednT0JCPtrTEY-56" target="B24YX5WednT0JCPtrTEY-56">
          <mxGeometry width="80" relative="1" as="geometry">
            <mxPoint x="830" y="1770" as="sourcePoint" />
            <mxPoint x="830" y="1790" as="targetPoint" />
            <Array as="points">
              <mxPoint x="920" y="1770" />
              <mxPoint x="920" y="1790" />
            </Array>
          </mxGeometry>
        </mxCell>
        <mxCell id="B24YX5WednT0JCPtrTEY-72" value="&lt;font style=&quot;&quot;&gt;&lt;font style=&quot;font-size: 10px;&quot;&gt;GetCurNodePaillierSkFromSaveData&lt;/font&gt;&lt;br&gt;&lt;div style=&quot;&quot;&gt;&lt;span style=&quot;font-size: 8px;&quot;&gt;get current node&#39;s paillier private key from &lt;br&gt;saved data that obtained when generating pubkey&lt;/span&gt;&lt;/div&gt;&lt;/font&gt;" style="edgeLabel;html=1;align=center;verticalAlign=middle;resizable=0;points=[];labelBackgroundColor=none;fontColor=#1A1A1A;" connectable="0" vertex="1" parent="B24YX5WednT0JCPtrTEY-71">
          <mxGeometry x="-0.6935" y="-1" relative="1" as="geometry">
            <mxPoint x="63" y="-31" as="offset" />
          </mxGeometry>
        </mxCell>
        <mxCell id="B24YX5WednT0JCPtrTEY-73" value="" style="edgeStyle=none;orthogonalLoop=1;jettySize=auto;html=1;rounded=0;labelBackgroundColor=none;fontColor=default;strokeColor=#182E3E;" edge="1" parent="1">
          <mxGeometry width="80" relative="1" as="geometry">
            <mxPoint x="825" y="1830" as="sourcePoint" />
            <mxPoint x="825" y="1850" as="targetPoint" />
            <Array as="points">
              <mxPoint x="920" y="1830" />
              <mxPoint x="920" y="1850" />
            </Array>
          </mxGeometry>
        </mxCell>
        <mxCell id="B24YX5WednT0JCPtrTEY-74" value="GetNtildeByIndexFromSaveData &lt;br&gt;&lt;font style=&quot;font-size: 8px;&quot;&gt;(obtained by generating pubkey)&lt;/font&gt;" style="edgeLabel;html=1;align=center;verticalAlign=middle;resizable=0;points=[];fontSize=10;labelBackgroundColor=none;fontColor=#1A1A1A;" connectable="0" vertex="1" parent="B24YX5WednT0JCPtrTEY-73">
          <mxGeometry x="-0.6935" y="-1" relative="1" as="geometry">
            <mxPoint x="43" y="-21" as="offset" />
          </mxGeometry>
        </mxCell>
        <mxCell id="B24YX5WednT0JCPtrTEY-75" value="" style="shape=umlLifeline;perimeter=lifelinePerimeter;whiteSpace=wrap;html=1;container=1;dropTarget=0;collapsible=0;recursiveResize=0;outlineConnect=0;portConstraint=eastwest;newEdgeStyle={&quot;edgeStyle&quot;:&quot;elbowEdgeStyle&quot;,&quot;elbow&quot;:&quot;vertical&quot;,&quot;curved&quot;:0,&quot;rounded&quot;:0};participant=umlEntity;labelBackgroundColor=none;fillColor=#F5AB50;strokeColor=#909090;fontColor=#1A1A1A;" vertex="1" parent="1">
          <mxGeometry x="1045" y="1430" width="40" height="1290" as="geometry" />
        </mxCell>
        <mxCell id="B24YX5WednT0JCPtrTEY-79" value="" style="html=1;points=[];perimeter=orthogonalPerimeter;outlineConnect=0;targetShapes=umlLifeline;portConstraint=eastwest;newEdgeStyle={&quot;edgeStyle&quot;:&quot;elbowEdgeStyle&quot;,&quot;elbow&quot;:&quot;vertical&quot;,&quot;curved&quot;:0,&quot;rounded&quot;:0};labelBackgroundColor=none;fillColor=#F5AB50;strokeColor=#909090;fontColor=#1A1A1A;" vertex="1" parent="B24YX5WednT0JCPtrTEY-75">
          <mxGeometry x="15" y="430" width="10" height="40" as="geometry" />
        </mxCell>
        <mxCell id="B24YX5WednT0JCPtrTEY-87" value="" style="html=1;points=[];perimeter=orthogonalPerimeter;outlineConnect=0;targetShapes=umlLifeline;portConstraint=eastwest;newEdgeStyle={&quot;edgeStyle&quot;:&quot;elbowEdgeStyle&quot;,&quot;elbow&quot;:&quot;vertical&quot;,&quot;curved&quot;:0,&quot;rounded&quot;:0};labelBackgroundColor=none;fillColor=#F5AB50;strokeColor=#909090;fontColor=#1A1A1A;" vertex="1" parent="B24YX5WednT0JCPtrTEY-75">
          <mxGeometry x="15" y="530" width="10" height="130" as="geometry" />
        </mxCell>
        <mxCell id="B24YX5WednT0JCPtrTEY-78" value="&lt;font style=&quot;&quot;&gt;&lt;font style=&quot;font-size: 12px;&quot;&gt;Sign state machine&lt;/font&gt;&lt;br&gt;&lt;span style=&quot;font-size: 8px;&quot;&gt;smpc-lib.ecdsa.signing.local-dnode&lt;/span&gt;&lt;/font&gt;" style="text;html=1;align=center;verticalAlign=middle;resizable=0;points=[];autosize=1;strokeColor=none;fillColor=none;labelBackgroundColor=none;fontColor=#1A1A1A;" vertex="1" parent="1">
          <mxGeometry x="990" y="1390" width="150" height="40" as="geometry" />
        </mxCell>
        <mxCell id="B24YX5WednT0JCPtrTEY-80" value="" style="edgeStyle=none;orthogonalLoop=1;jettySize=auto;html=1;rounded=0;labelBackgroundColor=none;fontColor=default;strokeColor=#182E3E;" edge="1" parent="1" source="B24YX5WednT0JCPtrTEY-56" target="B24YX5WednT0JCPtrTEY-79">
          <mxGeometry width="80" relative="1" as="geometry">
            <mxPoint x="825" y="1870" as="sourcePoint" />
            <mxPoint x="1085" y="1870" as="targetPoint" />
            <Array as="points">
              <mxPoint x="870" y="1870" />
              <mxPoint x="920" y="1870" />
            </Array>
          </mxGeometry>
        </mxCell>
        <mxCell id="B24YX5WednT0JCPtrTEY-81" value="NewLocalDNode" style="edgeLabel;html=1;align=center;verticalAlign=middle;resizable=0;points=[];fontSize=10;labelBackgroundColor=none;fontColor=#1A1A1A;" connectable="0" vertex="1" parent="B24YX5WednT0JCPtrTEY-80">
          <mxGeometry x="-0.6935" y="-1" relative="1" as="geometry">
            <mxPoint x="4" y="-11" as="offset" />
          </mxGeometry>
        </mxCell>
        <mxCell id="B24YX5WednT0JCPtrTEY-82" value="return" style="html=1;verticalAlign=bottom;endArrow=open;dashed=1;endSize=8;edgeStyle=elbowEdgeStyle;elbow=vertical;curved=0;rounded=0;labelBackgroundColor=none;fontColor=default;strokeColor=#182E3E;" edge="1" parent="1" source="B24YX5WednT0JCPtrTEY-79" target="B24YX5WednT0JCPtrTEY-56">
          <mxGeometry relative="1" as="geometry">
            <mxPoint x="990" y="1890" as="sourcePoint" />
            <mxPoint x="895" y="1890" as="targetPoint" />
            <Array as="points">
              <mxPoint x="943" y="1890" />
            </Array>
          </mxGeometry>
        </mxCell>
        <mxCell id="B24YX5WednT0JCPtrTEY-83" value="" style="html=1;points=[];perimeter=orthogonalPerimeter;outlineConnect=0;targetShapes=umlLifeline;portConstraint=eastwest;newEdgeStyle={&quot;edgeStyle&quot;:&quot;elbowEdgeStyle&quot;,&quot;elbow&quot;:&quot;vertical&quot;,&quot;curved&quot;:0,&quot;rounded&quot;:0};labelBackgroundColor=none;fillColor=#F5AB50;strokeColor=#909090;fontColor=#1A1A1A;" vertex="1" parent="1">
          <mxGeometry x="865" y="1930" width="10" height="230" as="geometry" />
        </mxCell>
        <mxCell id="B24YX5WednT0JCPtrTEY-84" value="" style="edgeStyle=none;orthogonalLoop=1;jettySize=auto;html=1;rounded=0;labelBackgroundColor=none;fontColor=default;strokeColor=#182E3E;" edge="1" parent="1" target="B24YX5WednT0JCPtrTEY-83">
          <mxGeometry width="80" relative="1" as="geometry">
            <mxPoint x="825" y="1920" as="sourcePoint" />
            <mxPoint x="875" y="1940" as="targetPoint" />
            <Array as="points">
              <mxPoint x="970" y="1920" />
              <mxPoint x="970" y="1940" />
              <mxPoint x="920" y="1940" />
            </Array>
          </mxGeometry>
        </mxCell>
        <mxCell id="B24YX5WednT0JCPtrTEY-85" value="&lt;span style=&quot;font-size: 10px;&quot;&gt;create thread from lambda&lt;/span&gt;" style="edgeLabel;html=1;align=center;verticalAlign=middle;resizable=0;points=[];labelBackgroundColor=none;fontColor=#1A1A1A;" connectable="0" vertex="1" parent="B24YX5WednT0JCPtrTEY-84">
          <mxGeometry x="-0.6935" y="-1" relative="1" as="geometry">
            <mxPoint x="22" y="-11" as="offset" />
          </mxGeometry>
        </mxCell>
        <mxCell id="B24YX5WednT0JCPtrTEY-86" value="return" style="html=1;verticalAlign=bottom;endArrow=open;dashed=1;endSize=8;edgeStyle=elbowEdgeStyle;elbow=vertical;curved=0;rounded=0;labelBackgroundColor=none;fontColor=default;strokeColor=#182E3E;" edge="1" parent="1" source="B24YX5WednT0JCPtrTEY-83" target="B24YX5WednT0JCPtrTEY-56">
          <mxGeometry relative="1" as="geometry">
            <mxPoint x="1085" y="1990" as="sourcePoint" />
            <mxPoint x="850" y="1990" as="targetPoint" />
            <Array as="points">
              <mxPoint x="840" y="1940" />
            </Array>
          </mxGeometry>
        </mxCell>
        <mxCell id="B24YX5WednT0JCPtrTEY-88" value="" style="edgeStyle=none;orthogonalLoop=1;jettySize=auto;html=1;rounded=0;labelBackgroundColor=none;fontColor=default;strokeColor=#182E3E;" edge="1" parent="1" source="B24YX5WednT0JCPtrTEY-83">
          <mxGeometry width="80" relative="1" as="geometry">
            <mxPoint x="865" y="1970" as="sourcePoint" />
            <mxPoint x="1060" y="1970" as="targetPoint" />
            <Array as="points">
              <mxPoint x="910" y="1970" />
              <mxPoint x="960" y="1970" />
            </Array>
          </mxGeometry>
        </mxCell>
        <mxCell id="B24YX5WednT0JCPtrTEY-89" value="Start" style="edgeLabel;html=1;align=center;verticalAlign=middle;resizable=0;points=[];fontSize=10;labelBackgroundColor=none;fontColor=#1A1A1A;" connectable="0" vertex="1" parent="B24YX5WednT0JCPtrTEY-88">
          <mxGeometry x="-0.6935" y="-1" relative="1" as="geometry">
            <mxPoint x="-15" y="-11" as="offset" />
          </mxGeometry>
        </mxCell>
        <mxCell id="B24YX5WednT0JCPtrTEY-90" value="" style="shape=umlLifeline;perimeter=lifelinePerimeter;whiteSpace=wrap;html=1;container=1;dropTarget=0;collapsible=0;recursiveResize=0;outlineConnect=0;portConstraint=eastwest;newEdgeStyle={&quot;edgeStyle&quot;:&quot;elbowEdgeStyle&quot;,&quot;elbow&quot;:&quot;vertical&quot;,&quot;curved&quot;:0,&quot;rounded&quot;:0};participant=umlEntity;labelBackgroundColor=none;fillColor=#F5AB50;strokeColor=#909090;fontColor=#1A1A1A;" vertex="1" parent="1">
          <mxGeometry x="1180" y="1430" width="40" height="1290" as="geometry" />
        </mxCell>
        <mxCell id="B24YX5WednT0JCPtrTEY-92" value="" style="html=1;points=[];perimeter=orthogonalPerimeter;outlineConnect=0;targetShapes=umlLifeline;portConstraint=eastwest;newEdgeStyle={&quot;edgeStyle&quot;:&quot;elbowEdgeStyle&quot;,&quot;elbow&quot;:&quot;vertical&quot;,&quot;curved&quot;:0,&quot;rounded&quot;:0};labelBackgroundColor=none;fillColor=#F5AB50;strokeColor=#909090;fontColor=#1A1A1A;" vertex="1" parent="B24YX5WednT0JCPtrTEY-90">
          <mxGeometry x="15" y="540" width="10" height="30" as="geometry" />
        </mxCell>
        <mxCell id="B24YX5WednT0JCPtrTEY-101" value="" style="html=1;points=[];perimeter=orthogonalPerimeter;outlineConnect=0;targetShapes=umlLifeline;portConstraint=eastwest;newEdgeStyle={&quot;edgeStyle&quot;:&quot;elbowEdgeStyle&quot;,&quot;elbow&quot;:&quot;vertical&quot;,&quot;curved&quot;:0,&quot;rounded&quot;:0};labelBackgroundColor=none;fillColor=#F5AB50;strokeColor=#909090;fontColor=#1A1A1A;" vertex="1" parent="B24YX5WednT0JCPtrTEY-90">
          <mxGeometry x="15" y="595" width="10" height="55" as="geometry" />
        </mxCell>
        <mxCell id="B24YX5WednT0JCPtrTEY-103" value="" style="edgeStyle=none;orthogonalLoop=1;jettySize=auto;html=1;rounded=0;labelBackgroundColor=none;fontColor=default;strokeColor=#182E3E;" edge="1" parent="B24YX5WednT0JCPtrTEY-90" source="B24YX5WednT0JCPtrTEY-101" target="B24YX5WednT0JCPtrTEY-101">
          <mxGeometry width="80" relative="1" as="geometry">
            <mxPoint x="30" y="620" as="sourcePoint" />
            <mxPoint x="30" y="640" as="targetPoint" />
            <Array as="points">
              <mxPoint x="160" y="620" />
              <mxPoint x="160" y="630" />
            </Array>
          </mxGeometry>
        </mxCell>
        <mxCell id="B24YX5WednT0JCPtrTEY-104" value="&lt;font style=&quot;font-size: 8px;&quot;&gt;send msg to out ch at the end&lt;/font&gt;" style="edgeLabel;html=1;align=center;verticalAlign=middle;resizable=0;points=[];labelBackgroundColor=none;fontColor=#1A1A1A;" connectable="0" vertex="1" parent="B24YX5WednT0JCPtrTEY-103">
          <mxGeometry x="-0.6935" y="-1" relative="1" as="geometry">
            <mxPoint x="11" y="-11" as="offset" />
          </mxGeometry>
        </mxCell>
        <mxCell id="B24YX5WednT0JCPtrTEY-272" value="" style="html=1;points=[];perimeter=orthogonalPerimeter;outlineConnect=0;targetShapes=umlLifeline;portConstraint=eastwest;newEdgeStyle={&quot;edgeStyle&quot;:&quot;elbowEdgeStyle&quot;,&quot;elbow&quot;:&quot;vertical&quot;,&quot;curved&quot;:0,&quot;rounded&quot;:0};labelBackgroundColor=none;fillColor=#F5AB50;strokeColor=#909090;fontColor=#1A1A1A;" vertex="1" parent="B24YX5WednT0JCPtrTEY-90">
          <mxGeometry x="15" y="790" width="10" height="260" as="geometry" />
        </mxCell>
        <mxCell id="B24YX5WednT0JCPtrTEY-276" value="" style="edgeStyle=none;orthogonalLoop=1;jettySize=auto;html=1;rounded=0;labelBackgroundColor=none;fontColor=default;strokeColor=#182E3E;" edge="1" parent="B24YX5WednT0JCPtrTEY-90" source="B24YX5WednT0JCPtrTEY-272" target="B24YX5WednT0JCPtrTEY-272">
          <mxGeometry width="80" relative="1" as="geometry">
            <mxPoint x="30" y="820" as="sourcePoint" />
            <mxPoint x="30" y="840" as="targetPoint" />
            <Array as="points">
              <mxPoint x="95" y="820" />
              <mxPoint x="95" y="840" />
            </Array>
          </mxGeometry>
        </mxCell>
        <mxCell id="B24YX5WednT0JCPtrTEY-277" value="&lt;font style=&quot;font-size: 10px;&quot;&gt;&lt;br&gt;&lt;/font&gt;" style="edgeLabel;html=1;align=center;verticalAlign=middle;resizable=0;points=[];labelBackgroundColor=none;fontColor=#1A1A1A;" connectable="0" vertex="1" parent="B24YX5WednT0JCPtrTEY-276">
          <mxGeometry x="-0.6935" y="-1" relative="1" as="geometry">
            <mxPoint x="46" y="-21" as="offset" />
          </mxGeometry>
        </mxCell>
        <mxCell id="B24YX5WednT0JCPtrTEY-278" value="StoreMessage" style="edgeLabel;html=1;align=center;verticalAlign=middle;resizable=0;points=[];labelBackgroundColor=none;fontColor=#1A1A1A;" connectable="0" vertex="1" parent="B24YX5WednT0JCPtrTEY-276">
          <mxGeometry x="-0.5168" y="-1" relative="1" as="geometry">
            <mxPoint x="3" y="-11" as="offset" />
          </mxGeometry>
        </mxCell>
        <mxCell id="B24YX5WednT0JCPtrTEY-93" value="&lt;font style=&quot;&quot;&gt;&lt;font style=&quot;font-size: 12px;&quot;&gt;Rounds&lt;/font&gt;&lt;br&gt;&lt;span style=&quot;font-size: 8px;&quot;&gt;smpc-lib.ecdsa.signing.round_*&lt;/span&gt;&lt;/font&gt;" style="text;html=1;align=center;verticalAlign=middle;resizable=0;points=[];autosize=1;strokeColor=none;fillColor=none;labelBackgroundColor=none;fontColor=#1A1A1A;" vertex="1" parent="1">
          <mxGeometry x="1135" y="1390" width="130" height="40" as="geometry" />
        </mxCell>
        <mxCell id="B24YX5WednT0JCPtrTEY-94" value="" style="edgeStyle=none;orthogonalLoop=1;jettySize=auto;html=1;rounded=0;labelBackgroundColor=none;fontColor=default;strokeColor=#182E3E;" edge="1" parent="1" source="B24YX5WednT0JCPtrTEY-87" target="B24YX5WednT0JCPtrTEY-92">
          <mxGeometry width="80" relative="1" as="geometry">
            <mxPoint x="1073" y="1980" as="sourcePoint" />
            <mxPoint x="1200.5" y="1970" as="targetPoint" />
            <Array as="points">
              <mxPoint x="1130" y="1980" />
            </Array>
          </mxGeometry>
        </mxCell>
        <mxCell id="B24YX5WednT0JCPtrTEY-95" value="round_1.newRound1" style="edgeLabel;html=1;align=center;verticalAlign=middle;resizable=0;points=[];fontSize=10;labelBackgroundColor=none;fontColor=#1A1A1A;" connectable="0" vertex="1" parent="B24YX5WednT0JCPtrTEY-94">
          <mxGeometry x="-0.6935" y="-1" relative="1" as="geometry">
            <mxPoint x="31" y="-11" as="offset" />
          </mxGeometry>
        </mxCell>
        <mxCell id="B24YX5WednT0JCPtrTEY-98" value="return" style="html=1;verticalAlign=bottom;endArrow=open;dashed=1;endSize=8;edgeStyle=elbowEdgeStyle;elbow=vertical;curved=0;rounded=0;labelBackgroundColor=none;fontColor=default;strokeColor=#182E3E;" edge="1" parent="1" source="B24YX5WednT0JCPtrTEY-92" target="B24YX5WednT0JCPtrTEY-87">
          <mxGeometry relative="1" as="geometry">
            <mxPoint x="1180" y="2000" as="sourcePoint" />
            <mxPoint x="1085" y="2000" as="targetPoint" />
            <Array as="points">
              <mxPoint x="1130" y="2000" />
            </Array>
          </mxGeometry>
        </mxCell>
        <mxCell id="B24YX5WednT0JCPtrTEY-99" value="" style="edgeStyle=none;orthogonalLoop=1;jettySize=auto;html=1;rounded=0;labelBackgroundColor=none;fontColor=default;strokeColor=#182E3E;" edge="1" parent="1" source="B24YX5WednT0JCPtrTEY-87" target="B24YX5WednT0JCPtrTEY-101">
          <mxGeometry width="80" relative="1" as="geometry">
            <mxPoint x="1075" y="2030" as="sourcePoint" />
            <mxPoint x="1200" y="2030" as="targetPoint" />
            <Array as="points">
              <mxPoint x="1135" y="2030" />
            </Array>
          </mxGeometry>
        </mxCell>
        <mxCell id="B24YX5WednT0JCPtrTEY-100" value="round_1.Start" style="edgeLabel;html=1;align=center;verticalAlign=middle;resizable=0;points=[];fontSize=10;labelBackgroundColor=none;fontColor=#1A1A1A;" connectable="0" vertex="1" parent="B24YX5WednT0JCPtrTEY-99">
          <mxGeometry x="-0.6935" y="-1" relative="1" as="geometry">
            <mxPoint x="11" y="-11" as="offset" />
          </mxGeometry>
        </mxCell>
        <mxCell id="B24YX5WednT0JCPtrTEY-102" value="return" style="html=1;verticalAlign=bottom;endArrow=open;dashed=1;endSize=8;edgeStyle=elbowEdgeStyle;elbow=vertical;curved=0;rounded=0;labelBackgroundColor=none;fontColor=default;strokeColor=#182E3E;" edge="1" parent="1" source="B24YX5WednT0JCPtrTEY-90">
          <mxGeometry relative="1" as="geometry">
            <mxPoint x="1180" y="2080" as="sourcePoint" />
            <mxPoint x="1070" y="2080" as="targetPoint" />
            <Array as="points">
              <mxPoint x="1115" y="2080" />
            </Array>
          </mxGeometry>
        </mxCell>
        <mxCell id="B24YX5WednT0JCPtrTEY-105" value="return" style="html=1;verticalAlign=bottom;endArrow=open;dashed=1;endSize=8;edgeStyle=elbowEdgeStyle;elbow=vertical;curved=0;rounded=0;labelBackgroundColor=none;fontColor=default;strokeColor=#182E3E;" edge="1" parent="1" source="B24YX5WednT0JCPtrTEY-87" target="B24YX5WednT0JCPtrTEY-83">
          <mxGeometry relative="1" as="geometry">
            <mxPoint x="995" y="2080" as="sourcePoint" />
            <mxPoint x="865" y="2080" as="targetPoint" />
            <Array as="points">
              <mxPoint x="910" y="2090" />
            </Array>
          </mxGeometry>
        </mxCell>
        <mxCell id="B24YX5WednT0JCPtrTEY-108" value="" style="edgeStyle=none;orthogonalLoop=1;jettySize=auto;html=1;rounded=0;labelBackgroundColor=none;fontColor=default;strokeColor=#182E3E;" edge="1" parent="1" source="B24YX5WednT0JCPtrTEY-83" target="B24YX5WednT0JCPtrTEY-83">
          <mxGeometry width="80" relative="1" as="geometry">
            <mxPoint x="930" y="2130" as="sourcePoint" />
            <mxPoint x="930" y="2150" as="targetPoint" />
            <Array as="points">
              <mxPoint x="1030" y="2120" />
              <mxPoint x="1030" y="2130" />
            </Array>
          </mxGeometry>
        </mxCell>
        <mxCell id="B24YX5WednT0JCPtrTEY-109" value="&lt;font style=&quot;font-size: 8px;&quot;&gt;it loads again pubkey for some reason&lt;/font&gt;" style="edgeLabel;html=1;align=center;verticalAlign=middle;resizable=0;points=[];fontSize=10;labelBackgroundColor=none;fontColor=#1A1A1A;" connectable="0" vertex="1" parent="B24YX5WednT0JCPtrTEY-108">
          <mxGeometry x="-0.6935" y="-1" relative="1" as="geometry">
            <mxPoint x="26" y="-11" as="offset" />
          </mxGeometry>
        </mxCell>
        <mxCell id="B24YX5WednT0JCPtrTEY-110" value="return" style="html=1;verticalAlign=bottom;endArrow=open;dashed=1;endSize=8;edgeStyle=elbowEdgeStyle;elbow=vertical;curved=0;rounded=0;labelBackgroundColor=none;fontColor=default;strokeColor=#182E3E;" edge="1" parent="1" source="B24YX5WednT0JCPtrTEY-83" target="B24YX5WednT0JCPtrTEY-56">
          <mxGeometry relative="1" as="geometry">
            <mxPoint x="1045" y="2160" as="sourcePoint" />
            <mxPoint x="850" y="2160" as="targetPoint" />
            <Array as="points">
              <mxPoint x="850" y="2160" />
            </Array>
            <mxPoint as="offset" />
          </mxGeometry>
        </mxCell>
        <mxCell id="B24YX5WednT0JCPtrTEY-111" value="" style="edgeStyle=none;orthogonalLoop=1;jettySize=auto;html=1;rounded=0;labelBackgroundColor=none;fontColor=default;strokeColor=#182E3E;" edge="1" parent="1" source="B24YX5WednT0JCPtrTEY-56" target="B24YX5WednT0JCPtrTEY-115">
          <mxGeometry width="80" relative="1" as="geometry">
            <mxPoint x="830" y="2190" as="sourcePoint" />
            <mxPoint x="1465" y="2190" as="targetPoint" />
            <Array as="points">
              <mxPoint x="870" y="2190" />
            </Array>
          </mxGeometry>
        </mxCell>
        <mxCell id="B24YX5WednT0JCPtrTEY-112" value="create thread from&amp;nbsp;SignProcessInboundMessages&amp;nbsp; &lt;font style=&quot;font-size: 8px;&quot;&gt;(Analyze the obtained P2P messages and enter next round). See smpc.dnode.BaseUpdate&lt;/font&gt;" style="edgeLabel;html=1;align=center;verticalAlign=middle;resizable=0;points=[];fontSize=10;labelBackgroundColor=none;fontColor=#1A1A1A;" connectable="0" vertex="1" parent="B24YX5WednT0JCPtrTEY-111">
          <mxGeometry x="-0.6935" relative="1" as="geometry">
            <mxPoint x="183" y="-10" as="offset" />
          </mxGeometry>
        </mxCell>
        <mxCell id="B24YX5WednT0JCPtrTEY-114" value="" style="shape=umlLifeline;perimeter=lifelinePerimeter;whiteSpace=wrap;html=1;container=1;dropTarget=0;collapsible=0;recursiveResize=0;outlineConnect=0;portConstraint=eastwest;newEdgeStyle={&quot;edgeStyle&quot;:&quot;elbowEdgeStyle&quot;,&quot;elbow&quot;:&quot;vertical&quot;,&quot;curved&quot;:0,&quot;rounded&quot;:0};participant=umlEntity;labelBackgroundColor=none;fillColor=#F5AB50;strokeColor=#909090;fontColor=#1A1A1A;" vertex="1" parent="1">
          <mxGeometry x="1410" y="1430" width="40" height="1440" as="geometry" />
        </mxCell>
        <mxCell id="B24YX5WednT0JCPtrTEY-115" value="" style="html=1;points=[];perimeter=orthogonalPerimeter;outlineConnect=0;targetShapes=umlLifeline;portConstraint=eastwest;newEdgeStyle={&quot;edgeStyle&quot;:&quot;elbowEdgeStyle&quot;,&quot;elbow&quot;:&quot;vertical&quot;,&quot;curved&quot;:0,&quot;rounded&quot;:0};labelBackgroundColor=none;fillColor=#F5AB50;strokeColor=#909090;fontColor=#1A1A1A;" vertex="1" parent="B24YX5WednT0JCPtrTEY-114">
          <mxGeometry x="15" y="750" width="10" height="320" as="geometry" />
        </mxCell>
        <mxCell id="B24YX5WednT0JCPtrTEY-304" value="" style="html=1;points=[];perimeter=orthogonalPerimeter;outlineConnect=0;targetShapes=umlLifeline;portConstraint=eastwest;newEdgeStyle={&quot;edgeStyle&quot;:&quot;elbowEdgeStyle&quot;,&quot;elbow&quot;:&quot;vertical&quot;,&quot;curved&quot;:0,&quot;rounded&quot;:0};labelBackgroundColor=none;fillColor=#F5AB50;strokeColor=#909090;fontColor=#1A1A1A;" vertex="1" parent="B24YX5WednT0JCPtrTEY-114">
          <mxGeometry x="15" y="1120" width="10" height="60" as="geometry" />
        </mxCell>
        <mxCell id="B24YX5WednT0JCPtrTEY-306" value="" style="edgeStyle=none;orthogonalLoop=1;jettySize=auto;html=1;rounded=0;labelBackgroundColor=none;fontColor=default;strokeColor=#182E3E;" edge="1" parent="B24YX5WednT0JCPtrTEY-114" source="B24YX5WednT0JCPtrTEY-304" target="B24YX5WednT0JCPtrTEY-304">
          <mxGeometry width="80" relative="1" as="geometry">
            <mxPoint x="40" y="1140" as="sourcePoint" />
            <mxPoint x="40" y="1160" as="targetPoint" />
            <Array as="points">
              <mxPoint x="110" y="1140" />
              <mxPoint x="110" y="1160" />
            </Array>
          </mxGeometry>
        </mxCell>
        <mxCell id="B24YX5WednT0JCPtrTEY-307" value="&lt;font style=&quot;font-size: 10px;&quot;&gt;&lt;br&gt;&lt;/font&gt;" style="edgeLabel;html=1;align=center;verticalAlign=middle;resizable=0;points=[];labelBackgroundColor=none;fontColor=#1A1A1A;" connectable="0" vertex="1" parent="B24YX5WednT0JCPtrTEY-306">
          <mxGeometry x="-0.6935" y="-1" relative="1" as="geometry">
            <mxPoint x="46" y="-21" as="offset" />
          </mxGeometry>
        </mxCell>
        <mxCell id="B24YX5WednT0JCPtrTEY-308" value="&lt;font style=&quot;&quot;&gt;SignProcessOutCh&lt;br&gt;&lt;/font&gt;&lt;font style=&quot;font-size: 8px;&quot;&gt;(broadcast msg to other nodes on outCh msg receival)&lt;/font&gt;" style="edgeLabel;html=1;align=center;verticalAlign=middle;resizable=0;points=[];labelBackgroundColor=none;fontColor=#1A1A1A;" connectable="0" vertex="1" parent="B24YX5WednT0JCPtrTEY-306">
          <mxGeometry x="-0.5168" y="-1" relative="1" as="geometry">
            <mxPoint x="52" y="-18" as="offset" />
          </mxGeometry>
        </mxCell>
        <mxCell id="B24YX5WednT0JCPtrTEY-117" value="&lt;font style=&quot;&quot;&gt;&lt;font style=&quot;font-size: 12px;&quot;&gt;Signing&lt;/font&gt;&lt;br&gt;&lt;span style=&quot;font-size: 8px;&quot;&gt;smpc.sign_ec&lt;/span&gt;&lt;/font&gt;" style="text;html=1;align=center;verticalAlign=middle;resizable=0;points=[];autosize=1;strokeColor=none;fillColor=none;labelBackgroundColor=none;fontColor=#1A1A1A;" vertex="1" parent="1">
          <mxGeometry x="1395" y="1390" width="70" height="40" as="geometry" />
        </mxCell>
        <mxCell id="B24YX5WednT0JCPtrTEY-118" value="" style="edgeStyle=none;orthogonalLoop=1;jettySize=auto;html=1;rounded=0;endArrow=oval;endFill=1;labelBackgroundColor=none;fontColor=default;strokeColor=#182E3E;" edge="1" parent="1" source="B24YX5WednT0JCPtrTEY-115">
          <mxGeometry width="80" relative="1" as="geometry">
            <mxPoint x="1450" y="2530" as="sourcePoint" />
            <mxPoint x="1550" y="2500" as="targetPoint" />
            <Array as="points" />
          </mxGeometry>
        </mxCell>
        <mxCell id="B24YX5WednT0JCPtrTEY-119" value="End &lt;font style=&quot;font-size: 8px;&quot;&gt;on finish msg&lt;/font&gt;" style="edgeLabel;html=1;align=center;verticalAlign=middle;resizable=0;points=[];labelBackgroundColor=none;fontColor=#1A1A1A;" connectable="0" vertex="1" parent="B24YX5WednT0JCPtrTEY-118">
          <mxGeometry x="-0.1577" relative="1" as="geometry">
            <mxPoint y="-10" as="offset" />
          </mxGeometry>
        </mxCell>
        <mxCell id="B24YX5WednT0JCPtrTEY-273" value="" style="edgeStyle=none;orthogonalLoop=1;jettySize=auto;html=1;rounded=0;startArrow=classic;startFill=1;endArrow=none;endFill=0;labelBackgroundColor=none;fontColor=default;strokeColor=#182E3E;" edge="1" parent="1" source="B24YX5WednT0JCPtrTEY-272" target="B24YX5WednT0JCPtrTEY-115">
          <mxGeometry width="80" relative="1" as="geometry">
            <mxPoint x="1220" y="2230" as="sourcePoint" />
            <mxPoint x="1585" y="2230" as="targetPoint" />
            <Array as="points">
              <mxPoint x="1335.33" y="2230" />
              <mxPoint x="1395.33" y="2230" />
            </Array>
          </mxGeometry>
        </mxCell>
        <mxCell id="B24YX5WednT0JCPtrTEY-274" value="&lt;font style=&quot;&quot;&gt;&lt;br&gt;&lt;/font&gt;" style="edgeLabel;html=1;align=center;verticalAlign=middle;resizable=0;points=[];labelBackgroundColor=none;fontColor=#1A1A1A;" connectable="0" vertex="1" parent="B24YX5WednT0JCPtrTEY-273">
          <mxGeometry x="-0.6935" y="-1" relative="1" as="geometry">
            <mxPoint x="119" y="17" as="offset" />
          </mxGeometry>
        </mxCell>
        <mxCell id="B24YX5WednT0JCPtrTEY-275" value="Update&lt;br&gt;&lt;font style=&quot;font-size: 8px;&quot;&gt;on msg recv&lt;/font&gt;" style="edgeLabel;html=1;align=center;verticalAlign=middle;resizable=0;points=[];labelBackgroundColor=none;fontColor=#1A1A1A;" connectable="0" vertex="1" parent="B24YX5WednT0JCPtrTEY-273">
          <mxGeometry x="0.1017" y="-1" relative="1" as="geometry">
            <mxPoint x="71" y="-13" as="offset" />
          </mxGeometry>
        </mxCell>
        <mxCell id="B24YX5WednT0JCPtrTEY-285" value="" style="html=1;points=[];perimeter=orthogonalPerimeter;outlineConnect=0;targetShapes=umlLifeline;portConstraint=eastwest;newEdgeStyle={&quot;edgeStyle&quot;:&quot;elbowEdgeStyle&quot;,&quot;elbow&quot;:&quot;vertical&quot;,&quot;curved&quot;:0,&quot;rounded&quot;:0};labelBackgroundColor=none;fillColor=#F5AB50;strokeColor=#909090;fontColor=#1A1A1A;" vertex="1" parent="1">
          <mxGeometry x="1335" y="2280" width="10" height="40" as="geometry" />
        </mxCell>
        <mxCell id="B24YX5WednT0JCPtrTEY-286" value="" style="html=1;points=[];perimeter=orthogonalPerimeter;outlineConnect=0;targetShapes=umlLifeline;portConstraint=eastwest;newEdgeStyle={&quot;edgeStyle&quot;:&quot;elbowEdgeStyle&quot;,&quot;elbow&quot;:&quot;vertical&quot;,&quot;curved&quot;:0,&quot;rounded&quot;:0};labelBackgroundColor=none;fillColor=#F5AB50;strokeColor=#909090;fontColor=#1A1A1A;" vertex="1" parent="1">
          <mxGeometry x="1335" y="2340" width="10" height="40" as="geometry" />
        </mxCell>
        <mxCell id="B24YX5WednT0JCPtrTEY-287" value="" style="html=1;points=[];perimeter=orthogonalPerimeter;outlineConnect=0;targetShapes=umlLifeline;portConstraint=eastwest;newEdgeStyle={&quot;edgeStyle&quot;:&quot;elbowEdgeStyle&quot;,&quot;elbow&quot;:&quot;vertical&quot;,&quot;curved&quot;:0,&quot;rounded&quot;:0};labelBackgroundColor=none;fillColor=#F5AB50;strokeColor=#909090;fontColor=#1A1A1A;" vertex="1" parent="1">
          <mxGeometry x="1335" y="2410" width="10" height="40" as="geometry" />
        </mxCell>
        <mxCell id="B24YX5WednT0JCPtrTEY-288" style="edgeStyle=elbowEdgeStyle;rounded=0;orthogonalLoop=1;jettySize=auto;html=1;elbow=vertical;curved=0;labelBackgroundColor=none;fontColor=default;strokeColor=#182E3E;" edge="1" parent="1" source="B24YX5WednT0JCPtrTEY-272" target="B24YX5WednT0JCPtrTEY-285">
          <mxGeometry relative="1" as="geometry">
            <Array as="points">
              <mxPoint x="1280" y="2290" />
            </Array>
            <mxPoint x="1220" y="2290" as="sourcePoint" />
          </mxGeometry>
        </mxCell>
        <mxCell id="B24YX5WednT0JCPtrTEY-289" value="&lt;font style=&quot;font-size: 10px;&quot;&gt;Round_*.CanProceed&lt;/font&gt;" style="edgeLabel;html=1;align=center;verticalAlign=middle;resizable=0;points=[];labelBackgroundColor=none;fontColor=#1A1A1A;" connectable="0" vertex="1" parent="B24YX5WednT0JCPtrTEY-288">
          <mxGeometry x="-0.3457" y="3" relative="1" as="geometry">
            <mxPoint x="12" y="-7" as="offset" />
          </mxGeometry>
        </mxCell>
        <mxCell id="B24YX5WednT0JCPtrTEY-290" value="return" style="html=1;verticalAlign=bottom;endArrow=open;dashed=1;endSize=8;edgeStyle=elbowEdgeStyle;elbow=vertical;curved=0;rounded=0;labelBackgroundColor=none;fontColor=default;strokeColor=#182E3E;" edge="1" parent="1" target="B24YX5WednT0JCPtrTEY-272">
          <mxGeometry relative="1" as="geometry">
            <mxPoint x="1335" y="2309.998620689655" as="sourcePoint" />
            <mxPoint x="1220" y="2310.24" as="targetPoint" />
          </mxGeometry>
        </mxCell>
        <mxCell id="B24YX5WednT0JCPtrTEY-291" style="edgeStyle=elbowEdgeStyle;rounded=0;orthogonalLoop=1;jettySize=auto;html=1;elbow=vertical;curved=0;labelBackgroundColor=none;fontColor=default;strokeColor=#182E3E;" edge="1" parent="1" source="B24YX5WednT0JCPtrTEY-272" target="B24YX5WednT0JCPtrTEY-286">
          <mxGeometry relative="1" as="geometry">
            <mxPoint x="1220" y="2350" as="sourcePoint" />
            <mxPoint x="1335" y="2350" as="targetPoint" />
            <Array as="points">
              <mxPoint x="1280" y="2350" />
            </Array>
          </mxGeometry>
        </mxCell>
        <mxCell id="B24YX5WednT0JCPtrTEY-292" value="return" style="html=1;verticalAlign=bottom;endArrow=open;dashed=1;endSize=8;edgeStyle=elbowEdgeStyle;elbow=vertical;curved=0;rounded=0;labelBackgroundColor=none;fontColor=default;strokeColor=#182E3E;" edge="1" parent="1" target="B24YX5WednT0JCPtrTEY-272">
          <mxGeometry x="0.0032" relative="1" as="geometry">
            <mxPoint x="1335" y="2370.003448275862" as="sourcePoint" />
            <mxPoint x="1220" y="2370.003448275862" as="targetPoint" />
            <mxPoint as="offset" />
          </mxGeometry>
        </mxCell>
        <mxCell id="B24YX5WednT0JCPtrTEY-293" value="&lt;font style=&quot;font-size: 10px;&quot;&gt;Round_*.Advance&lt;/font&gt;" style="edgeLabel;html=1;align=center;verticalAlign=middle;resizable=0;points=[];labelBackgroundColor=none;fontColor=#1A1A1A;" connectable="0" vertex="1" parent="1">
          <mxGeometry x="1270.0010344827585" y="2340" as="geometry" />
        </mxCell>
        <mxCell id="B24YX5WednT0JCPtrTEY-294" style="edgeStyle=elbowEdgeStyle;rounded=0;orthogonalLoop=1;jettySize=auto;html=1;elbow=horizontal;curved=0;labelBackgroundColor=none;fontColor=default;strokeColor=#182E3E;" edge="1" parent="1" source="B24YX5WednT0JCPtrTEY-272" target="B24YX5WednT0JCPtrTEY-287">
          <mxGeometry relative="1" as="geometry">
            <mxPoint x="1220" y="2420" as="sourcePoint" />
            <mxPoint x="1335" y="2420" as="targetPoint" />
            <Array as="points">
              <mxPoint x="1280" y="2420" />
            </Array>
          </mxGeometry>
        </mxCell>
        <mxCell id="B24YX5WednT0JCPtrTEY-295" value="Round_*.Start" style="edgeLabel;html=1;align=center;verticalAlign=middle;resizable=0;points=[];labelBackgroundColor=none;fontColor=#1A1A1A;" connectable="0" vertex="1" parent="B24YX5WednT0JCPtrTEY-294">
          <mxGeometry x="-0.4297" y="-2" relative="1" as="geometry">
            <mxPoint x="17" y="-12" as="offset" />
          </mxGeometry>
        </mxCell>
        <mxCell id="B24YX5WednT0JCPtrTEY-296" value="return" style="html=1;verticalAlign=bottom;endArrow=open;dashed=1;endSize=8;edgeStyle=elbowEdgeStyle;elbow=vertical;curved=0;rounded=0;labelBackgroundColor=none;fontColor=default;strokeColor=#182E3E;" edge="1" parent="1" target="B24YX5WednT0JCPtrTEY-272">
          <mxGeometry x="0.0032" relative="1" as="geometry">
            <mxPoint x="1335" y="2440.003448275862" as="sourcePoint" />
            <mxPoint x="1220" y="2440.003448275862" as="targetPoint" />
            <mxPoint as="offset" />
          </mxGeometry>
        </mxCell>
        <mxCell id="B24YX5WednT0JCPtrTEY-298" value="" style="edgeStyle=none;orthogonalLoop=1;jettySize=auto;html=1;rounded=0;dashed=1;labelBackgroundColor=none;fontColor=default;strokeColor=#182E3E;" edge="1" parent="1" source="B24YX5WednT0JCPtrTEY-272" target="B24YX5WednT0JCPtrTEY-115">
          <mxGeometry width="80" relative="1" as="geometry">
            <mxPoint x="1210" y="2470" as="sourcePoint" />
            <mxPoint x="1430" y="2470" as="targetPoint" />
            <Array as="points">
              <mxPoint x="1310" y="2470" />
            </Array>
          </mxGeometry>
        </mxCell>
        <mxCell id="B24YX5WednT0JCPtrTEY-299" value="return" style="edgeLabel;html=1;align=center;verticalAlign=middle;resizable=0;points=[];fontSize=10;labelBackgroundColor=none;fontColor=#1A1A1A;" connectable="0" vertex="1" parent="B24YX5WednT0JCPtrTEY-298">
          <mxGeometry x="0.1689" y="-1" relative="1" as="geometry">
            <mxPoint x="-8" y="-11" as="offset" />
          </mxGeometry>
        </mxCell>
        <mxCell id="B24YX5WednT0JCPtrTEY-301" value="return" style="html=1;verticalAlign=bottom;endArrow=open;dashed=1;endSize=8;edgeStyle=elbowEdgeStyle;elbow=vertical;curved=0;rounded=0;labelBackgroundColor=none;fontColor=default;strokeColor=#182E3E;" edge="1" parent="1">
          <mxGeometry relative="1" as="geometry">
            <mxPoint x="1425" y="2206" as="sourcePoint" />
            <mxPoint x="825" y="2206" as="targetPoint" />
            <Array as="points">
              <mxPoint x="910" y="2206" />
            </Array>
          </mxGeometry>
        </mxCell>
        <mxCell id="B24YX5WednT0JCPtrTEY-302" value="" style="edgeStyle=none;orthogonalLoop=1;jettySize=auto;html=1;rounded=0;labelBackgroundColor=none;fontColor=default;strokeColor=#182E3E;" edge="1" parent="1" source="B24YX5WednT0JCPtrTEY-56" target="B24YX5WednT0JCPtrTEY-304">
          <mxGeometry width="80" relative="1" as="geometry">
            <mxPoint x="865" y="2560" as="sourcePoint" />
            <mxPoint x="1410" y="2560" as="targetPoint" />
            <Array as="points">
              <mxPoint x="910" y="2560" />
            </Array>
          </mxGeometry>
        </mxCell>
        <mxCell id="B24YX5WednT0JCPtrTEY-303" value="processSignFinalize&lt;font style=&quot;font-size: 8px;&quot;&gt; (Obtain the data to be sent in each round and send it to other nodes until the end of the sign command )&lt;/font&gt;" style="edgeLabel;html=1;align=center;verticalAlign=middle;resizable=0;points=[];fontSize=10;labelBackgroundColor=none;fontColor=#1A1A1A;" connectable="0" vertex="1" parent="B24YX5WednT0JCPtrTEY-302">
          <mxGeometry x="-0.6935" relative="1" as="geometry">
            <mxPoint x="143" y="-10" as="offset" />
          </mxGeometry>
        </mxCell>
        <mxCell id="B24YX5WednT0JCPtrTEY-311" value="" style="edgeStyle=none;orthogonalLoop=1;jettySize=auto;html=1;rounded=0;startArrow=classic;startFill=1;endArrow=none;endFill=0;dashed=1;labelBackgroundColor=none;fontColor=default;strokeColor=#182E3E;" edge="1" parent="1">
          <mxGeometry width="80" relative="1" as="geometry">
            <mxPoint x="825" y="2603" as="sourcePoint" />
            <mxPoint x="1425" y="2603" as="targetPoint" />
            <Array as="points">
              <mxPoint x="1130" y="2603" />
            </Array>
          </mxGeometry>
        </mxCell>
        <mxCell id="B24YX5WednT0JCPtrTEY-312" value="return on finish msg or err" style="edgeLabel;html=1;align=center;verticalAlign=middle;resizable=0;points=[];labelBackgroundColor=none;fontColor=#1A1A1A;" connectable="0" vertex="1" parent="B24YX5WednT0JCPtrTEY-311">
          <mxGeometry x="-0.0867" y="2" relative="1" as="geometry">
            <mxPoint x="1" y="-11" as="offset" />
          </mxGeometry>
        </mxCell>
        <mxCell id="B24YX5WednT0JCPtrTEY-316" value="return" style="html=1;verticalAlign=bottom;endArrow=open;dashed=1;endSize=8;edgeStyle=elbowEdgeStyle;elbow=vertical;curved=0;rounded=0;labelBackgroundColor=none;fontColor=default;strokeColor=#182E3E;" edge="1" parent="1" source="B24YX5WednT0JCPtrTEY-56">
          <mxGeometry x="-0.0182" relative="1" as="geometry">
            <mxPoint x="540" y="2580.4285714285716" as="sourcePoint" />
            <mxPoint x="540" y="2670" as="targetPoint" />
            <Array as="points">
              <mxPoint x="620" y="2670" />
            </Array>
            <mxPoint as="offset" />
          </mxGeometry>
        </mxCell>
        <mxCell id="B24YX5WednT0JCPtrTEY-317" value="&lt;font style=&quot;font-size: 20px;&quot;&gt;Signing&lt;/font&gt;" style="text;html=1;strokeColor=none;fillColor=none;align=center;verticalAlign=middle;whiteSpace=wrap;rounded=0;labelBackgroundColor=none;fontColor=#1A1A1A;" vertex="1" parent="1">
          <mxGeometry x="10" y="1365" width="60" height="30" as="geometry" />
        </mxCell>
        <mxCell id="B24YX5WednT0JCPtrTEY-318" value="&lt;span style=&quot;font-size: 20px;&quot;&gt;Key generation&lt;/span&gt;" style="text;html=1;strokeColor=none;fillColor=none;align=center;verticalAlign=middle;whiteSpace=wrap;rounded=0;labelBackgroundColor=none;fontColor=#1A1A1A;" vertex="1" parent="1">
          <mxGeometry y="5" width="150" height="30" as="geometry" />
        </mxCell>
      </root>
    </mxGraphModel>
  </diagram>
</mxfile>
